<?xml version="1.0" encoding="utf-8"?>
<!-- Generator: Adobe Illustrator 25.4.1, SVG Export Plug-In . SVG Version: 6.00 Build 0)  -->
<svg version="1.1" id="_x2014_ÎÓÈ_x5F_1" xmlns="http://www.w3.org/2000/svg" xmlns:xlink="http://www.w3.org/1999/xlink"
	 x="0px" y="0px" viewBox="0 0 1510.11 1169.67" style="enable-background:new 0 0 1510.11 1169.67;" xml:space="preserve">
<style type="text/css">
	.st0{opacity:0.26;fill:#5C49CC;}
	.st1{opacity:0.6;fill:#F0588D;}
	.st2{opacity:0.09;fill:#F0588D;}
	.st3{fill:#170C2A;}
	.st4{fill:url(#SVGID_1_);}
	.st5{fill:#5C49CC;}
	.st6{fill:url(#SVGID_00000116918136339934155080000007385965544061824702_);}
	.st7{fill:#C2B9FA;}
	.st8{fill:url(#SVGID_00000145035086312329143960000001007439959244767648_);}
	.st9{fill:#BEBBF8;}
	.st10{fill:#FFFFFF;}
	.st11{opacity:0.22;fill:#5C49CC;}
	.st12{fill:url(#SVGID_00000115486006768819414020000003629417517616690874_);}
	.st13{fill:url(#SVGID_00000079463359487839637280000018173913490499381685_);}
	.st14{fill:url(#SVGID_00000088828613056928310580000013557999047375553677_);}
	.st15{fill:url(#SVGID_00000087385486182470870810000005635369820986297524_);}
	.st16{fill:url(#SVGID_00000052078470003922015120000012156839919165864882_);}
	.st17{opacity:0.85;}
	.st18{fill:url(#SVGID_00000150100941558334193030000004590579801347441301_);}
	.st19{fill:#F0588D;}
	.st20{fill:#F1F2F2;}
	.st21{fill:#C0BAF9;}
	.st22{opacity:0.22;fill:url(#SVGID_00000068670376861563619780000010115704834279377341_);}
	.st23{opacity:0.5;fill:#FFFFFF;}
	.st24{fill:#A7A5F9;}
	.st25{fill:url(#SVGID_00000070107798506052338840000017249162119395634860_);}
	.st26{fill:url(#SVGID_00000142135388797780444040000003870566156077347763_);}
	.st27{fill:url(#SVGID_00000105417431303964282060000013109364786776565147_);}
	.st28{fill:url(#SVGID_00000081612876785901161460000018195917586027748279_);}
	.st29{fill:url(#SVGID_00000174585470881459752550000011657267029879014021_);}
	.st30{fill:url(#SVGID_00000128479582445959431330000009784818104031633281_);}
	.st31{opacity:0.43;}
	.st32{fill:#1D1BA4;}
	.st33{fill:url(#SVGID_00000179640191406708851410000017143790526896423855_);}
</style>
<g>
	<g>
		<rect x="344.37" y="855.38" class="st0" width="177.98" height="258.7"/>
		<rect x="325.2" y="835.18" class="st0" width="177.98" height="258.7"/>
		<rect x="724.64" y="10.56" class="st0" width="422.04" height="302.59"/>
		<path class="st1" d="M1508.63,572.7c-3.28-17.03-9.97-32.85-19.35-46.71l9.26-13.34l-29.88-29.88l-13.34,9.26
			c-13.85-9.38-29.67-16.07-46.71-19.35l-2.72-16.94h-42.58l-2.72,16.94c-17.03,3.28-32.85,9.97-46.71,19.35l-13.34-9.26
			l-29.88,29.88l9.26,13.34c-9.38,13.85-16.07,29.67-19.35,46.71l-16.94,2.72V618l16.94,2.72c3.28,17.03,9.97,32.85,19.35,46.71
			l-9.26,13.34l29.88,29.88l13.34-9.26c13.85,9.38,29.67,16.07,46.71,19.35l2.72,16.94h42.58l2.72-16.94
			c17.03-3.28,32.85-9.97,46.71-19.35l13.34,9.26l29.88-29.88l-9.26-13.34c9.38-13.85,16.07-29.67,19.35-46.71l16.94-2.72v-42.58
			L1508.63,572.7z M1384.61,648.35c-28.52,0-51.64-23.12-51.64-51.64s23.12-51.64,51.64-51.64c28.52,0,51.64,23.12,51.64,51.64
			S1413.13,648.35,1384.61,648.35z"/>
		<path class="st2" d="M374.01,240.05c-2.58-13.39-7.84-25.83-15.21-36.72l7.28-10.49l-23.49-23.49l-10.49,7.28
			c-10.89-7.37-23.33-12.63-36.72-15.21l-2.14-13.32h-33.47l-2.14,13.32c-13.39,2.58-25.83,7.84-36.72,15.21l-10.49-7.28
			l-23.49,23.49l7.28,10.49c-7.37,10.89-12.63,23.33-15.21,36.72l-13.32,2.14v33.47l13.32,2.14c2.58,13.39,7.84,25.83,15.21,36.72
			L186.95,325l23.49,23.49l10.49-7.28c10.89,7.37,23.33,12.63,36.72,15.21l2.14,13.32h33.47l2.14-13.32
			c13.39-2.58,25.83-7.84,36.72-15.21l10.49,7.28L366.08,325l-7.28-10.49c7.37-10.89,12.63-23.33,15.21-36.72l13.32-2.14v-33.47
			L374.01,240.05z M276.52,299.52c-22.42,0-40.6-18.18-40.6-40.6s18.18-40.6,40.6-40.6c22.42,0,40.6,18.18,40.6,40.6
			S298.94,299.52,276.52,299.52z"/>
		<path class="st2" d="M1294.93,196.64c-1.68-8.72-5.11-16.82-9.91-23.92l4.74-6.83l-15.3-15.3l-6.83,4.74
			c-7.09-4.8-15.19-8.23-23.92-9.91l-1.39-8.68h-21.8l-1.39,8.68c-8.72,1.68-16.82,5.11-23.92,9.91l-6.83-4.74l-15.3,15.3l4.74,6.83
			c-4.8,7.09-8.23,15.19-9.91,23.92l-8.67,1.39v21.8l8.67,1.39c1.68,8.72,5.11,16.82,9.91,23.92l-4.74,6.83l15.3,15.3l6.83-4.74
			c7.09,4.8,15.19,8.23,23.92,9.91l1.39,8.67h21.8l1.39-8.67c8.72-1.68,16.82-5.11,23.92-9.91l6.83,4.74l15.3-15.3l-4.74-6.83
			c4.8-7.09,8.23-15.19,9.91-23.92l8.67-1.39v-21.8L1294.93,196.64z M1231.43,235.38c-14.6,0-26.44-11.84-26.44-26.44
			c0-14.6,11.84-26.44,26.44-26.44c14.6,0,26.44,11.84,26.44,26.44C1257.87,223.54,1246.03,235.38,1231.43,235.38z"/>
		<g>
			<g>
				<path class="st3" d="M1343.58,897.08V282.73c0-16.02-12.99-29.01-29.01-29.01H170.27c-16.02,0-29.01,12.99-29.01,29.01v614.34
					H1343.58z"/>
				<linearGradient id="SVGID_1_" gradientUnits="userSpaceOnUse" x1="141.2612" y1="942.5863" x2="1343.5795" y2="942.5863">
					<stop  offset="0" style="stop-color:#D9D5FF"/>
					<stop  offset="1" style="stop-color:#F9F9FF"/>
				</linearGradient>
				<path class="st4" d="M141.26,894.11v67.94c0,16.02,12.99,29.01,29.01,29.01h1144.3c16.02,0,29.01-12.99,29.01-29.01v-67.94
					H141.26z"/>
				<rect x="165.7" y="277.58" class="st5" width="1153.43" height="616.54"/>
				
					<linearGradient id="SVGID_00000155835602691841571290000000184378357738150581_" gradientUnits="userSpaceOnUse" x1="742.4204" y1="1015.2712" x2="742.4204" y2="1169.9207">
					<stop  offset="0" style="stop-color:#D9D5FF"/>
					<stop  offset="1" style="stop-color:#F9F9FF"/>
				</linearGradient>
				<path style="fill:url(#SVGID_00000155835602691841571290000000184378357738150581_);" d="M891.31,1144.48L891.31,1144.48H593.53
					l0,0c13.97-10.24,22.22-26.53,22.22-43.86V991.06h253.33v109.57C869.09,1117.95,877.34,1134.24,891.31,1144.48z"/>
				<rect x="615.75" y="991.06" class="st7" width="253.33" height="33.42"/>
				
					<linearGradient id="SVGID_00000124147337922050079420000005431167906538104724_" gradientUnits="userSpaceOnUse" x1="742.4204" y1="1130.8267" x2="742.4204" y2="1516.0594">
					<stop  offset="0" style="stop-color:#D9D5FF"/>
					<stop  offset="1" style="stop-color:#F9F9FF"/>
				</linearGradient>
				<path style="fill:url(#SVGID_00000124147337922050079420000005431167906538104724_);" d="M937.24,1169.67H547.61l0,0
					c0-13.91,11.28-25.18,25.18-25.18h339.26C925.96,1144.48,937.24,1155.76,937.24,1169.67L937.24,1169.67z"/>
				<circle class="st9" cx="742.42" cy="942.59" r="17.78"/>
			</g>
			<g>
				<path class="st10" d="M1384.61,869.62c-1.61,0-2.91-1.3-2.91-2.91v-11.65c0-1.61,1.3-2.91,2.91-2.91c1.61,0,2.91,1.3,2.91,2.91
					v11.65C1387.53,868.32,1386.22,869.62,1384.61,869.62z M1384.61,834.66c-1.61,0-2.91-1.3-2.91-2.91v-11.65
					c0-1.61,1.3-2.91,2.91-2.91c1.61,0,2.91,1.3,2.91,2.91v11.65C1387.53,833.36,1386.22,834.66,1384.61,834.66z M1384.61,799.7
					c-1.61,0-2.91-1.3-2.91-2.91v-11.65c0-1.61,1.3-2.91,2.91-2.91c1.61,0,2.91,1.3,2.91,2.91v11.65
					C1387.53,798.39,1386.22,799.7,1384.61,799.7z M1384.61,764.73c-1.61,0-2.91-1.3-2.91-2.91v-11.65c0-1.61,1.3-2.91,2.91-2.91
					c1.61,0,2.91,1.3,2.91,2.91v11.65C1387.53,763.43,1386.22,764.73,1384.61,764.73z M1384.61,729.77c-1.61,0-2.91-1.3-2.91-2.91
					V715.2c0-1.61,1.3-2.91,2.91-2.91c1.61,0,2.91,1.3,2.91,2.91v11.65C1387.53,728.47,1386.22,729.77,1384.61,729.77z
					 M1384.61,694.81c-1.61,0-2.91-1.3-2.91-2.91v-11.65c0-1.61,1.3-2.91,2.91-2.91c1.61,0,2.91,1.3,2.91,2.91v11.65
					C1387.53,693.5,1386.22,694.81,1384.61,694.81z M1384.61,659.84c-1.61,0-2.91-1.3-2.91-2.91v-11.65c0-1.61,1.3-2.91,2.91-2.91
					c1.61,0,2.91,1.3,2.91,2.91v11.65C1387.53,658.54,1386.22,659.84,1384.61,659.84z M1384.61,624.88c-1.61,0-2.91-1.3-2.91-2.91
					v-11.65c0-1.61,1.3-2.91,2.91-2.91c1.61,0,2.91,1.3,2.91,2.91v11.65C1387.53,623.58,1386.22,624.88,1384.61,624.88z
					 M1384.61,589.92c-1.61,0-2.91-1.3-2.91-2.91v-11.65c0-1.61,1.3-2.91,2.91-2.91c1.61,0,2.91,1.3,2.91,2.91V587
					C1387.53,588.61,1386.22,589.92,1384.61,589.92z M1384.61,554.95c-1.61,0-2.91-1.3-2.91-2.91v-11.65c0-1.61,1.3-2.91,2.91-2.91
					c1.61,0,2.91,1.3,2.91,2.91v11.65C1387.53,553.65,1386.22,554.95,1384.61,554.95z M1384.61,519.99c-1.61,0-2.91-1.3-2.91-2.91
					v-11.65c0-1.61,1.3-2.91,2.91-2.91c1.61,0,2.91,1.3,2.91,2.91v11.65C1387.53,518.69,1386.22,519.99,1384.61,519.99z
					 M1384.61,485.03c-1.61,0-2.91-1.3-2.91-2.91v-11.65c0-1.61,1.3-2.91,2.91-2.91c1.61,0,2.91,1.3,2.91,2.91v11.65
					C1387.53,483.72,1386.22,485.03,1384.61,485.03z M1384.61,450.07c-1.61,0-2.91-1.3-2.91-2.91V435.5c0-1.61,1.3-2.91,2.91-2.91
					c1.61,0,2.91,1.3,2.91,2.91v11.65C1387.53,448.76,1386.22,450.07,1384.61,450.07z M1384.61,415.1c-1.61,0-2.91-1.3-2.91-2.91
					v-11.65c0-1.61,1.3-2.91,2.91-2.91c1.61,0,2.91,1.3,2.91,2.91v11.65C1387.53,413.8,1386.22,415.1,1384.61,415.1z
					 M1384.61,380.14c-1.61,0-2.91-1.3-2.91-2.91v-11.65c0-1.61,1.3-2.91,2.91-2.91c1.61,0,2.91,1.3,2.91,2.91v11.65
					C1387.53,378.83,1386.22,380.14,1384.61,380.14z M1384.61,345.18c-1.61,0-2.91-1.3-2.91-2.91v-11.65c0-1.61,1.3-2.91,2.91-2.91
					c1.61,0,2.91,1.3,2.91,2.91v11.65C1387.53,343.87,1386.22,345.18,1384.61,345.18z M1384.61,310.21c-1.61,0-2.91-1.3-2.91-2.91
					v-11.65c0-1.61,1.3-2.91,2.91-2.91c1.61,0,2.91,1.3,2.91,2.91v11.65C1387.53,308.91,1386.22,310.21,1384.61,310.21z
					 M1384.61,275.25c-1.61,0-2.91-1.3-2.91-2.91v-11.65c0-1.61,1.3-2.91,2.91-2.91c1.61,0,2.91,1.3,2.91,2.91v11.65
					C1387.53,273.95,1386.22,275.25,1384.61,275.25z M1384.3,240.3c-1.43,0-2.68-1.06-2.88-2.52c-0.48-3.53-1.58-6.91-3.26-10.05
					c-0.76-1.42-0.22-3.18,1.19-3.94c1.42-0.76,3.19-0.23,3.94,1.19c2.01,3.75,3.32,7.79,3.89,12.01c0.22,1.59-0.9,3.06-2.49,3.28
					C1384.57,240.29,1384.44,240.3,1384.3,240.3z M1363.68,214.11c-0.35,0-0.71-0.06-1.06-0.2c-3.3-1.29-6.79-1.99-10.36-2.06
					c-1.61-0.03-2.89-1.36-2.86-2.97c0.03-1.59,1.33-2.86,2.91-2.86c0.02,0,0.04,0,0.06,0c4.27,0.08,8.43,0.91,12.37,2.46
					c1.5,0.59,2.24,2.28,1.65,3.78C1365.94,213.41,1364.84,214.11,1363.68,214.11z M1329,211.85h-11.65c-1.61,0-2.91-1.3-2.91-2.91
					c0-1.61,1.3-2.91,2.91-2.91H1329c1.61,0,2.91,1.3,2.91,2.91C1331.92,210.54,1330.61,211.85,1329,211.85z M1294.04,211.85h-11.65
					c-1.61,0-2.91-1.3-2.91-2.91c0-1.61,1.3-2.91,2.91-2.91h11.65c1.61,0,2.91,1.3,2.91,2.91
					C1296.95,210.54,1295.65,211.85,1294.04,211.85z M1259.08,211.85h-11.65c-1.61,0-2.91-1.3-2.91-2.91c0-1.61,1.3-2.91,2.91-2.91
					h11.65c1.61,0,2.91,1.3,2.91,2.91C1261.99,210.54,1260.68,211.85,1259.08,211.85z M1224.11,211.85h-11.65
					c-1.61,0-2.91-1.3-2.91-2.91c0-1.61,1.3-2.91,2.91-2.91h11.65c1.61,0,2.91,1.3,2.91,2.91
					C1227.03,210.54,1225.72,211.85,1224.11,211.85z M1189.15,211.85h-11.65c-1.61,0-2.91-1.3-2.91-2.91c0-1.61,1.3-2.91,2.91-2.91
					h11.65c1.61,0,2.91,1.3,2.91,2.91C1192.06,210.54,1190.76,211.85,1189.15,211.85z M1154.19,211.85h-11.65
					c-1.61,0-2.91-1.3-2.91-2.91c0-1.61,1.3-2.91,2.91-2.91h11.65c1.61,0,2.91,1.3,2.91,2.91
					C1157.1,210.54,1155.8,211.85,1154.19,211.85z M1119.22,211.85h-11.65c-1.61,0-2.91-1.3-2.91-2.91c0-1.61,1.3-2.91,2.91-2.91
					h11.65c1.61,0,2.91,1.3,2.91,2.91C1122.14,210.54,1120.83,211.85,1119.22,211.85z M1084.26,211.85h-11.65
					c-1.61,0-2.91-1.3-2.91-2.91c0-1.61,1.3-2.91,2.91-2.91h11.65c1.61,0,2.91,1.3,2.91,2.91
					C1087.17,210.54,1085.87,211.85,1084.26,211.85z M1049.3,211.85h-11.65c-1.61,0-2.91-1.3-2.91-2.91c0-1.61,1.3-2.91,2.91-2.91
					h11.65c1.61,0,2.91,1.3,2.91,2.91C1052.21,210.54,1050.91,211.85,1049.3,211.85z M1014.33,211.85h-11.65
					c-1.61,0-2.91-1.3-2.91-2.91c0-1.61,1.3-2.91,2.91-2.91h11.65c1.61,0,2.91,1.3,2.91,2.91
					C1017.25,210.54,1015.94,211.85,1014.33,211.85z M979.37,211.85h-11.65c-1.61,0-2.91-1.3-2.91-2.91c0-1.61,1.3-2.91,2.91-2.91
					h11.65c1.61,0,2.91,1.3,2.91,2.91C982.28,210.54,980.98,211.85,979.37,211.85z M944.41,211.85h-11.65
					c-1.61,0-2.91-1.3-2.91-2.91c0-1.61,1.3-2.91,2.91-2.91h11.65c1.61,0,2.91,1.3,2.91,2.91
					C947.32,210.54,946.02,211.85,944.41,211.85z M909.44,211.85h-11.65c-1.61,0-2.91-1.3-2.91-2.91c0-1.61,1.3-2.91,2.91-2.91
					h11.65c1.61,0,2.91,1.3,2.91,2.91C912.36,210.54,911.05,211.85,909.44,211.85z M874.48,211.85h-11.65
					c-1.61,0-2.91-1.3-2.91-2.91c0-1.61,1.3-2.91,2.91-2.91h11.65c1.61,0,2.91,1.3,2.91,2.91
					C877.4,210.54,876.09,211.85,874.48,211.85z M839.52,211.85h-11.65c-1.61,0-2.91-1.3-2.91-2.91c0-1.61,1.3-2.91,2.91-2.91h11.65
					c1.61,0,2.91,1.3,2.91,2.91C842.43,210.54,841.13,211.85,839.52,211.85z M804.55,211.85H792.9c-1.61,0-2.91-1.3-2.91-2.91
					c0-1.61,1.3-2.91,2.91-2.91h11.65c1.61,0,2.91,1.3,2.91,2.91C807.47,210.54,806.16,211.85,804.55,211.85z M769.59,211.85h-11.65
					c-1.61,0-2.91-1.3-2.91-2.91c0-1.61,1.3-2.91,2.91-2.91h11.65c1.61,0,2.91,1.3,2.91,2.91
					C772.51,210.54,771.2,211.85,769.59,211.85z M734.63,211.85h-11.65c-1.61,0-2.91-1.3-2.91-2.91c0-1.61,1.3-2.91,2.91-2.91h11.65
					c1.61,0,2.91,1.3,2.91,2.91C737.54,210.54,736.24,211.85,734.63,211.85z M699.67,211.85h-11.65c-1.61,0-2.91-1.3-2.91-2.91
					c0-1.61,1.3-2.91,2.91-2.91h11.65c1.61,0,2.91,1.3,2.91,2.91C702.58,210.54,701.27,211.85,699.67,211.85z M664.7,211.85h-11.65
					c-1.61,0-2.91-1.3-2.91-2.91c0-1.61,1.3-2.91,2.91-2.91h11.65c1.61,0,2.91,1.3,2.91,2.91
					C667.62,210.54,666.31,211.85,664.7,211.85z M629.74,211.85h-11.65c-1.61,0-2.91-1.3-2.91-2.91c0-1.61,1.3-2.91,2.91-2.91h11.65
					c1.61,0,2.91,1.3,2.91,2.91C632.65,210.54,631.35,211.85,629.74,211.85z M594.78,211.85h-11.65c-1.61,0-2.91-1.3-2.91-2.91
					c0-1.61,1.3-2.91,2.91-2.91h11.65c1.61,0,2.91,1.3,2.91,2.91C597.69,210.54,596.39,211.85,594.78,211.85z M559.81,211.85h-11.65
					c-1.61,0-2.91-1.3-2.91-2.91c0-1.61,1.3-2.91,2.91-2.91h11.65c1.61,0,2.91,1.3,2.91,2.91
					C562.73,210.54,561.42,211.85,559.81,211.85z M524.85,211.85H513.2c-1.61,0-2.91-1.3-2.91-2.91c0-1.61,1.3-2.91,2.91-2.91h11.65
					c1.61,0,2.91,1.3,2.91,2.91C527.76,210.54,526.46,211.85,524.85,211.85z M489.89,211.85h-11.65c-1.61,0-2.91-1.3-2.91-2.91
					c0-1.61,1.3-2.91,2.91-2.91h11.65c1.61,0,2.91,1.3,2.91,2.91C492.8,210.54,491.5,211.85,489.89,211.85z M454.92,211.85h-11.65
					c-1.61,0-2.91-1.3-2.91-2.91c0-1.61,1.3-2.91,2.91-2.91h11.65c1.61,0,2.91,1.3,2.91,2.91
					C457.84,210.54,456.53,211.85,454.92,211.85z M419.96,211.85h-11.65c-1.61,0-2.91-1.3-2.91-2.91c0-1.61,1.3-2.91,2.91-2.91
					h11.65c1.61,0,2.91,1.3,2.91,2.91C422.87,210.54,421.57,211.85,419.96,211.85z M385,211.85h-11.65c-1.61,0-2.91-1.3-2.91-2.91
					c0-1.61,1.3-2.91,2.91-2.91H385c1.61,0,2.91,1.3,2.91,2.91C387.91,210.54,386.61,211.85,385,211.85z M350.03,211.85h-11.65
					c-1.61,0-2.91-1.3-2.91-2.91c0-1.61,1.3-2.91,2.91-2.91h11.65c1.61,0,2.91,1.3,2.91,2.91
					C352.95,210.54,351.64,211.85,350.03,211.85z M315.07,211.85h-11.65c-1.61,0-2.91-1.3-2.91-2.91c0-1.61,1.3-2.91,2.91-2.91
					h11.65c1.61,0,2.91,1.3,2.91,2.91C317.98,210.54,316.68,211.85,315.07,211.85z M280.11,211.85h-11.65
					c-1.61,0-2.91-1.3-2.91-2.91c0-1.61,1.3-2.91,2.91-2.91h11.65c1.61,0,2.91,1.3,2.91,2.91
					C283.02,210.54,281.72,211.85,280.11,211.85z"/>
			</g>
			<polygon class="st11" points="165.7,894.11 1319.14,894.11 1319.14,277.58 165.7,894.11 			"/>
		</g>
		
			<linearGradient id="SVGID_00000142874382044161050140000007312298696874275227_" gradientUnits="userSpaceOnUse" x1="783.3334" y1="425.1874" x2="1006.4343" y2="425.1874">
			<stop  offset="0" style="stop-color:#C1C0FF"/>
			<stop  offset="1" style="stop-color:#D7D5FF"/>
		</linearGradient>
		
			<rect x="783.33" y="373.9" style="fill:url(#SVGID_00000142874382044161050140000007312298696874275227_);" width="223.1" height="102.57"/>
		
			<linearGradient id="SVGID_00000124873857787421162850000004298961001831773594_" gradientUnits="userSpaceOnUse" x1="1021.7924" y1="425.1874" x2="1244.8932" y2="425.1874">
			<stop  offset="0" style="stop-color:#C1C0FF"/>
			<stop  offset="1" style="stop-color:#D7D5FF"/>
		</linearGradient>
		
			<rect x="1021.79" y="373.9" style="fill:url(#SVGID_00000124873857787421162850000004298961001831773594_);" width="223.1" height="102.57"/>
		
			<linearGradient id="SVGID_00000058577529133680386240000000918331464622210190_" gradientUnits="userSpaceOnUse" x1="5642.1919" y1="-5408.7769" x2="5691.7417" y2="-5408.7769" gradientTransform="matrix(0 1 -1 0 -4516.8921 -5241.7793)">
			<stop  offset="0" style="stop-color:#C1C0FF"/>
			<stop  offset="1" style="stop-color:#D7D5FF"/>
		</linearGradient>
		<path style="fill:url(#SVGID_00000058577529133680386240000000918331464622210190_);" d="M878.16,401.18l33.11,19.11
			c3.77,2.18,3.77,7.61,0,9.79l-33.11,19.11c-3.77,2.18-8.48-0.54-8.48-4.9v-38.23C869.68,401.72,874.39,399,878.16,401.18z"/>
		<g>
			
				<linearGradient id="SVGID_00000100356157947402850370000016046808002058480517_" gradientUnits="userSpaceOnUse" x1="1094.4728" y1="424.7581" x2="1108.2662" y2="424.7581">
				<stop  offset="0" style="stop-color:#C1C0FF"/>
				<stop  offset="1" style="stop-color:#D7D5FF"/>
			</linearGradient>
			<path style="fill:url(#SVGID_00000100356157947402850370000016046808002058480517_);" d="M1102.65,423.25
				c-0.44,0.7-1.14,1.2-2.11,1.51c0.97,0.3,1.67,0.8,2.11,1.51c0.43,0.7,0.65,1.74,0.65,3.11v10.98c0,2.61,1.24,3.91,3.71,3.91h1.25
				v3.96h-2.21c-2.5,0-4.4-0.63-5.66-1.88c-1.27-1.25-1.91-3.1-1.91-5.54v-11.53c0-1.67-0.76-2.51-2.26-2.51h-1.76v-4.01h1.76
				c1.5,0,2.26-0.84,2.26-2.51v-11.53c0-2.44,0.63-4.29,1.91-5.54c1.27-1.25,3.16-1.88,5.66-1.88h2.21v3.96h-1.25
				c-2.47,0-3.71,1.3-3.71,3.91v10.98C1103.3,421.52,1103.08,422.55,1102.65,423.25z"/>
			
				<linearGradient id="SVGID_00000147933367881145328410000005515698112822383295_" gradientUnits="userSpaceOnUse" x1="1156.2089" y1="424.7581" x2="1169.9502" y2="424.7581">
				<stop  offset="0" style="stop-color:#C1C0FF"/>
				<stop  offset="1" style="stop-color:#D7D5FF"/>
			</linearGradient>
			<path style="fill:url(#SVGID_00000147933367881145328410000005515698112822383295_);" d="M1169.95,422.75v4.01h-1.71
				c-1.47,0-2.2,0.84-2.2,2.51v11.53c0,2.44-0.65,4.29-1.93,5.54c-1.29,1.25-3.19,1.88-5.69,1.88h-2.21v-3.96h1.2
				c2.54,0,3.82-1.3,3.82-3.91v-10.98c0-1.4,0.21-2.45,0.62-3.13c0.42-0.68,1.11-1.18,2.08-1.48c-0.97-0.3-1.67-0.79-2.08-1.48
				c-0.42-0.68-0.62-1.73-0.62-3.13v-10.98c0-2.61-1.27-3.91-3.82-3.91h-1.2v-3.96h2.21c2.5,0,4.4,0.63,5.69,1.88
				c1.28,1.25,1.93,3.1,1.93,5.54v11.53c0,1.67,0.73,2.51,2.2,2.51H1169.95z"/>
		</g>
		<g class="st17">
			<g>
				
					<linearGradient id="SVGID_00000023270351188581504760000005464144962152173222_" gradientUnits="userSpaceOnUse" x1="783.3334" y1="669.699" x2="1244.8932" y2="669.699">
					<stop  offset="0" style="stop-color:#D9D5FF"/>
					<stop  offset="1" style="stop-color:#F9F9FF"/>
				</linearGradient>
				
					<rect x="783.33" y="533.55" style="fill:url(#SVGID_00000023270351188581504760000005464144962152173222_);" width="461.56" height="272.3"/>
				<g>
					<path class="st19" d="M1233.71,509.18H794.52c-6.18,0-11.19,5.01-11.19,11.19v13.18h461.56v-13.18
						C1244.89,514.19,1239.88,509.18,1233.71,509.18z"/>
					<circle class="st20" cx="810.45" cy="522" r="4.39"/>
					<circle class="st20" cx="824.61" cy="522" r="4.39"/>
					<circle class="st20" cx="838.78" cy="522" r="4.39"/>
				</g>
			</g>
			<g>
				<rect x="813.59" y="566.1" class="st21" width="191.59" height="12.02"/>
				<rect x="813.59" y="593.69" class="st21" width="191.59" height="12.02"/>
				<rect x="1023.04" y="564.87" class="st21" width="191.59" height="95.98"/>
				<rect x="813.59" y="678.55" class="st21" width="191.59" height="95.98"/>
				<rect x="813.59" y="621.28" class="st21" width="191.59" height="12.02"/>
				<rect x="813.59" y="648.87" class="st21" width="191.59" height="12.02"/>
				<rect x="1023.04" y="679.14" class="st21" width="191.59" height="12.02"/>
				<rect x="1023.04" y="706.73" class="st21" width="191.59" height="12.02"/>
				<rect x="1023.04" y="734.32" class="st21" width="191.59" height="12.02"/>
				<rect x="1023.04" y="761.91" class="st21" width="191.59" height="12.02"/>
			</g>
		</g>
		
			<linearGradient id="SVGID_00000031908649561178963990000007450971758136256421_" gradientUnits="userSpaceOnUse" x1="1014.1133" y1="171.4954" x2="1014.1133" y2="80.4833">
			<stop  offset="0" style="stop-color:#D9D5FF"/>
			<stop  offset="1" style="stop-color:#F9F9FF"/>
		</linearGradient>
		
			<rect x="923" y="51.77" style="opacity:0.22;fill:url(#SVGID_00000031908649561178963990000007450971758136256421_);" width="182.22" height="121.94"/>
		<rect x="331.28" y="38.71" class="st23" width="226.76" height="26.11"/>
		<rect x="331.28" y="82.05" class="st23" width="226.76" height="26.11"/>
		<rect x="331.28" y="125.38" class="st23" width="226.76" height="26.11"/>
		<rect x="276.52" y="38.71" class="st19" width="54.76" height="26.15"/>
		<rect x="276.52" y="82.03" class="st5" width="54.76" height="26.15"/>
		<rect x="276.52" y="125.34" class="st24" width="54.76" height="26.15"/>
		
			<linearGradient id="SVGID_00000150099903540438040500000013856413883894819768_" gradientUnits="userSpaceOnUse" x1="343.6274" y1="47.8793" x2="473.3496" y2="47.8793">
			<stop  offset="0" style="stop-color:#D9D5FF"/>
			<stop  offset="1" style="stop-color:#F9F9FF"/>
		</linearGradient>
		
			<rect x="343.63" y="46.21" style="fill:url(#SVGID_00000150099903540438040500000013856413883894819768_);" width="129.72" height="3.33"/>
		
			<linearGradient id="SVGID_00000051377242908518027050000001977759950504811689_" gradientUnits="userSpaceOnUse" x1="343.6274" y1="55.6571" x2="408.4885" y2="55.6571">
			<stop  offset="0" style="stop-color:#D9D5FF"/>
			<stop  offset="1" style="stop-color:#F9F9FF"/>
		</linearGradient>
		
			<rect x="343.63" y="53.99" style="fill:url(#SVGID_00000051377242908518027050000001977759950504811689_);" width="64.86" height="3.33"/>
		
			<linearGradient id="SVGID_00000081617843221189679050000002156621051642197895_" gradientUnits="userSpaceOnUse" x1="344.3681" y1="91.2126" x2="474.0903" y2="91.2126">
			<stop  offset="0" style="stop-color:#D9D5FF"/>
			<stop  offset="1" style="stop-color:#F9F9FF"/>
		</linearGradient>
		
			<rect x="344.37" y="89.55" style="fill:url(#SVGID_00000081617843221189679050000002156621051642197895_);" width="129.72" height="3.33"/>
		
			<linearGradient id="SVGID_00000165236086131432539730000003569106979163966344_" gradientUnits="userSpaceOnUse" x1="344.3681" y1="98.9904" x2="409.2292" y2="98.9904">
			<stop  offset="0" style="stop-color:#D9D5FF"/>
			<stop  offset="1" style="stop-color:#F9F9FF"/>
		</linearGradient>
		
			<rect x="344.37" y="97.32" style="fill:url(#SVGID_00000165236086131432539730000003569106979163966344_);" width="64.86" height="3.33"/>
		
			<linearGradient id="SVGID_00000088831373856808256130000016748860333407736718_" gradientUnits="userSpaceOnUse" x1="344.3681" y1="134.5459" x2="474.0903" y2="134.5459">
			<stop  offset="0" style="stop-color:#D9D5FF"/>
			<stop  offset="1" style="stop-color:#F9F9FF"/>
		</linearGradient>
		
			<rect x="344.37" y="132.88" style="fill:url(#SVGID_00000088831373856808256130000016748860333407736718_);" width="129.72" height="3.33"/>
		
			<linearGradient id="SVGID_00000129186013469852253690000001746108545852642233_" gradientUnits="userSpaceOnUse" x1="344.3681" y1="142.3237" x2="409.2292" y2="142.3237">
			<stop  offset="0" style="stop-color:#D9D5FF"/>
			<stop  offset="1" style="stop-color:#F9F9FF"/>
		</linearGradient>
		
			<rect x="344.37" y="140.66" style="fill:url(#SVGID_00000129186013469852253690000001746108545852642233_);" width="64.86" height="3.33"/>
		
			<ellipse transform="matrix(0.1784 -0.984 0.984 0.1784 703.2751 1024.7391)" class="st21" cx="965.27" cy="91.23" rx="26.69" ry="26.69"/>
		<g>
			<path class="st23" d="M1136.45-11.72H734.87c-5.65,0-10.23,4.58-10.23,10.23v12.05h422.04V-1.49
				C1146.68-7.14,1142.1-11.72,1136.45-11.72z"/>
			<path class="st21" d="M753.45,0c0,2.22-1.8,4.02-4.02,4.02c-2.22,0-4.02-1.8-4.02-4.02c0-2.22,1.8-4.02,4.02-4.02
				C751.65-4.02,753.45-2.22,753.45,0z"/>
			<path class="st21" d="M766.4,0c0,2.22-1.8,4.02-4.02,4.02c-2.22,0-4.02-1.8-4.02-4.02c0-2.22,1.8-4.02,4.02-4.02
				C764.6-4.02,766.4-2.22,766.4,0z"/>
			<path class="st21" d="M779.35,0c0,2.22-1.8,4.02-4.02,4.02c-2.22,0-4.02-1.8-4.02-4.02c0-2.22,1.8-4.02,4.02-4.02
				C777.55-4.02,779.35-2.22,779.35,0z"/>
		</g>
		<g class="st31">
			
				<ellipse transform="matrix(0.9871 -0.1602 0.1602 0.9871 -0.1949 155.6404)" class="st10" cx="965.27" cy="79.03" rx="8.08" ry="8.08"/>
			<path class="st10" d="M965.27,88.42L965.27,88.42c-8.42,0-15.24,6.82-15.24,15.24v1.03h30.48v-1.03
				C980.51,95.24,973.69,88.42,965.27,88.42z"/>
		</g>
		<g>
			<rect x="618.16" y="161.86" class="st32" width="12.41" height="12.41"/>
			<rect x="636.87" y="161.86" class="st32" width="12.41" height="12.41"/>
			<rect x="655.57" y="161.86" class="st32" width="12.41" height="12.41"/>
		</g>
		<g>
			<rect x="150" y="1049.18" class="st19" width="12.41" height="12.41"/>
			<rect x="168.7" y="1049.18" class="st19" width="12.41" height="12.41"/>
			<rect x="187.4" y="1049.18" class="st19" width="12.41" height="12.41"/>
		</g>
		<g>
			<rect x="935.16" y="1036.77" class="st24" width="12.41" height="12.41"/>
			<rect x="953.86" y="1036.77" class="st24" width="12.41" height="12.41"/>
			<rect x="972.56" y="1036.77" class="st24" width="12.41" height="12.41"/>
			<rect x="991.27" y="1036.77" class="st24" width="12.41" height="12.41"/>
			<rect x="1009.97" y="1036.77" class="st24" width="12.41" height="12.41"/>
			<rect x="1028.67" y="1036.77" class="st24" width="12.41" height="12.41"/>
			<rect x="1048.95" y="1036.77" class="st24" width="264.4" height="12.41"/>
		</g>
		<rect x="745.42" y="51.77" class="st23" width="158.67" height="3.61"/>
		<rect x="745.42" y="92.88" class="st23" width="158.67" height="3.61"/>
		<rect x="745.42" y="100.29" class="st23" width="158.67" height="3.61"/>
		<rect x="745.42" y="107.69" class="st23" width="52.93" height="3.61"/>
		<rect x="745.42" y="59.18" class="st23" width="158.67" height="3.61"/>
		<rect x="745.42" y="66.58" class="st23" width="158.67" height="3.61"/>
		<rect x="745.42" y="73.99" class="st23" width="109.97" height="3.61"/>
		<rect x="745.42" y="124.08" class="st23" width="158.67" height="3.61"/>
		<rect x="745.42" y="131.49" class="st23" width="158.67" height="3.61"/>
		<rect x="745.42" y="138.9" class="st23" width="158.67" height="3.61"/>
		<rect x="745.42" y="146.31" class="st23" width="109.97" height="3.61"/>
		<g class="st17">
			
				<linearGradient id="SVGID_00000056398211299973771360000006297069797339648175_" gradientUnits="userSpaceOnUse" x1="0" y1="607.7926" x2="671.427" y2="607.7926">
				<stop  offset="0" style="stop-color:#D9D5FF"/>
				<stop  offset="1" style="stop-color:#F9F9FF"/>
			</linearGradient>
			
				<rect y="409.74" style="fill:url(#SVGID_00000056398211299973771360000006297069797339648175_);" width="671.43" height="396.11"/>
			<g>
				<path class="st19" d="M655.15,374.73H16.27C7.29,374.73,0,382.01,0,391v19.17h671.43V391
					C671.43,382.01,664.14,374.73,655.15,374.73z"/>
				<path class="st20" d="M45.83,393.37c0,3.53-2.86,6.39-6.39,6.39s-6.39-2.86-6.39-6.39s2.86-6.39,6.39-6.39
					S45.83,389.84,45.83,393.37z"/>
				<path class="st20" d="M66.44,393.37c0,3.53-2.86,6.39-6.39,6.39s-6.39-2.86-6.39-6.39s2.86-6.39,6.39-6.39
					S66.44,389.84,66.44,393.37z"/>
				<path class="st20" d="M87.04,393.37c0,3.53-2.86,6.39-6.39,6.39s-6.39-2.86-6.39-6.39s2.86-6.39,6.39-6.39
					S87.04,389.84,87.04,393.37z"/>
			</g>
			<rect x="35.01" y="454" class="st21" width="296.27" height="87.71"/>
			<g>
				<rect x="35.01" y="554.38" class="st21" width="139.9" height="9.55"/>
				<rect x="191.38" y="554.38" class="st21" width="139.9" height="9.55"/>
			</g>
			<g>
				<rect x="35.01" y="575.96" class="st21" width="139.9" height="9.55"/>
				<rect x="191.38" y="575.96" class="st21" width="139.9" height="9.55"/>
			</g>
			<g>
				<rect x="35.01" y="597.54" class="st21" width="139.9" height="9.55"/>
				<rect x="191.38" y="597.54" class="st21" width="139.9" height="9.55"/>
			</g>
			<g>
				<rect x="35.01" y="619.11" class="st21" width="139.9" height="9.55"/>
				<rect x="191.38" y="619.11" class="st21" width="139.9" height="9.55"/>
			</g>
			<g>
				<rect x="340.15" y="554.38" class="st21" width="139.9" height="9.55"/>
				<rect x="496.52" y="554.38" class="st21" width="139.9" height="9.55"/>
			</g>
			<g>
				<rect x="340.15" y="575.96" class="st21" width="139.9" height="9.55"/>
				<rect x="496.52" y="575.96" class="st21" width="139.9" height="9.55"/>
			</g>
			<g>
				<rect x="340.15" y="597.54" class="st21" width="139.9" height="9.55"/>
				<rect x="496.52" y="597.54" class="st21" width="139.9" height="9.55"/>
			</g>
			<g>
				<rect x="340.15" y="619.11" class="st21" width="139.9" height="9.55"/>
				<rect x="496.52" y="619.11" class="st21" width="139.9" height="9.55"/>
			</g>
			<g>
				<path class="st10" d="M115.07,493.45l-10.56,3.87l10.56,3.84v3.96l-15.09-5.74v-4.12l15.09-5.74V493.45z"/>
				<path class="st10" d="M127.93,507.32c-1.83-0.98-3.27-2.35-4.31-4.09c-1.05-1.74-1.57-3.72-1.57-5.91c0-2.2,0.52-4.17,1.57-5.91
					c1.05-1.74,2.48-3.11,4.31-4.09c1.83-0.98,3.88-1.47,6.17-1.47c1.92,0,3.66,0.34,5.22,1.01c1.55,0.68,2.86,1.65,3.92,2.92
					l-3.3,3.04c-1.5-1.73-3.36-2.6-5.58-2.6c-1.37,0-2.6,0.3-3.68,0.9c-1.08,0.6-1.92,1.44-2.52,2.52c-0.6,1.08-0.9,2.3-0.9,3.68
					c0,1.37,0.3,2.6,0.9,3.68c0.6,1.08,1.44,1.92,2.52,2.52c1.08,0.6,2.3,0.9,3.68,0.9c2.22,0,4.08-0.88,5.58-2.63l3.3,3.04
					c-1.06,1.29-2.37,2.27-3.93,2.95c-1.56,0.68-3.31,1.01-5.23,1.01C131.81,508.8,129.76,508.31,127.93,507.32z"/>
				<path class="st10" d="M154.54,507.31c-1.85-0.99-3.3-2.36-4.34-4.11c-1.05-1.74-1.57-3.7-1.57-5.88c0-2.18,0.52-4.14,1.57-5.88
					c1.05-1.74,2.49-3.11,4.34-4.11c1.85-0.99,3.93-1.49,6.23-1.49s4.38,0.5,6.22,1.49c1.84,0.99,3.29,2.36,4.34,4.11
					c1.06,1.74,1.59,3.71,1.59,5.88c0,2.18-0.53,4.14-1.59,5.88c-1.06,1.74-2.51,3.11-4.34,4.11c-1.84,0.99-3.91,1.49-6.22,1.49
					S156.39,508.3,154.54,507.31z M164.32,503.52c1.06-0.6,1.89-1.44,2.49-2.52c0.6-1.08,0.9-2.3,0.9-3.68c0-1.37-0.3-2.6-0.9-3.68
					c-0.6-1.08-1.43-1.92-2.49-2.52c-1.06-0.6-2.24-0.9-3.55-0.9c-1.31,0-2.49,0.3-3.55,0.9c-1.06,0.6-1.89,1.44-2.49,2.52
					c-0.6,1.08-0.9,2.3-0.9,3.68c0,1.37,0.3,2.6,0.9,3.68c0.6,1.08,1.43,1.92,2.49,2.52c1.06,0.6,2.24,0.9,3.55,0.9
					C162.08,504.42,163.26,504.12,164.32,503.52z"/>
				<path class="st10" d="M180.59,486.22h10.08c2.41,0,4.54,0.46,6.39,1.38c1.85,0.92,3.29,2.21,4.31,3.88
					c1.02,1.67,1.54,3.62,1.54,5.83c0,2.22-0.51,4.17-1.54,5.83c-1.03,1.67-2.46,2.96-4.31,3.88c-1.85,0.92-3.98,1.38-6.39,1.38
					h-10.08V486.22z M190.42,504.2c2.22,0,3.99-0.62,5.31-1.85c1.32-1.24,1.98-2.91,1.98-5.03c0-2.11-0.66-3.79-1.98-5.03
					c-1.32-1.24-3.09-1.86-5.31-1.86h-4.69v13.76H190.42z"/>
				<path class="st10" d="M227.78,504.29v4.12h-17.19v-22.2h16.78v4.12h-11.67v4.82H226v4h-10.31v5.14H227.78z"/>
				<path class="st10" d="M242.46,481.71h4.41l-10.47,29.87h-4.41L242.46,481.71z"/>
				<path class="st10" d="M266.34,495.26v4.12l-15.09,5.74v-3.96l10.56-3.84l-10.56-3.87v-3.93L266.34,495.26z"/>
			</g>
			<rect x="340.15" y="454" class="st19" width="296.27" height="87.71"/>
			<rect x="35.01" y="642.99" class="st19" width="296.27" height="87.71"/>
			<rect x="340.15" y="642.99" class="st21" width="296.27" height="87.71"/>
			<g>
				<path class="st10" d="M429.5,493.45l-10.56,3.87l10.56,3.84v3.96l-15.09-5.74v-4.12l15.09-5.74V493.45z"/>
				<path class="st10" d="M458.23,486.22v22.2h-5.14v-9.1h-10.08v9.1h-5.14v-22.2h5.14v8.75h10.08v-8.75H458.23z"/>
				<path class="st10" d="M471.9,490.4h-7.1v-4.19h19.34v4.19h-7.1v18.01h-5.14V490.4z"/>
				<path class="st10" d="M510.91,508.42l-0.03-13.32l-6.53,10.97h-2.32l-6.5-10.69v13.03h-4.82v-22.2h4.25l8.31,13.79l8.18-13.79
					h4.22l0.06,22.2H510.91z"/>
				<path class="st10" d="M524.8,486.22h5.14v18.01h11.13v4.19H524.8V486.22z"/>
				<path class="st10" d="M562.18,495.26v4.12l-15.09,5.74v-3.96l10.56-3.84l-10.56-3.87v-3.93L562.18,495.26z"/>
			</g>
			<g>
				<path class="st10" d="M393.92,680.85l-10.56,3.87l10.56,3.84v3.96l-15.09-5.74v-4.12l15.09-5.74V680.85z"/>
				<path class="st10" d="M409.08,669.12h4.41l-10.47,29.87h-4.41L409.08,669.12z"/>
				<path class="st10" d="M438.89,673.62v22.2h-5.14v-9.1h-10.08v9.1h-5.14v-22.2h5.14v8.75h10.08v-8.75H438.89z"/>
				<path class="st10" d="M465.15,691.7v4.12h-17.19v-22.2h16.78v4.12h-11.67v4.82h10.31v4h-10.31v5.14H465.15z"/>
				<path class="st10" d="M487.66,691.06h-10.31l-1.97,4.76h-5.26l9.89-22.2h5.07l9.93,22.2h-5.39L487.66,691.06z M486.04,687.16
					l-3.52-8.5l-3.52,8.5H486.04z"/>
				<path class="st10" d="M501.14,673.62h10.08c2.41,0,4.54,0.46,6.39,1.38c1.85,0.92,3.29,2.21,4.31,3.88
					c1.02,1.67,1.54,3.62,1.54,5.84c0,2.22-0.51,4.16-1.54,5.83c-1.03,1.67-2.46,2.96-4.31,3.88c-1.85,0.92-3.98,1.38-6.39,1.38
					h-10.08V673.62z M510.97,691.6c2.22,0,3.99-0.62,5.31-1.85c1.32-1.24,1.98-2.91,1.98-5.03c0-2.11-0.66-3.79-1.98-5.03
					c-1.32-1.24-3.09-1.86-5.31-1.86h-4.69v13.76H510.97z"/>
				<path class="st10" d="M548.33,691.7v4.12h-17.19v-22.2h16.78v4.12h-11.67v4.82h10.31v4h-10.31v5.14H548.33z"/>
				<path class="st10" d="M570.37,695.82l-4.28-6.18h-0.25h-4.47v6.18h-5.14v-22.2h9.61c1.97,0,3.67,0.33,5.12,0.98
					c1.45,0.66,2.56,1.58,3.35,2.79c0.78,1.21,1.17,2.63,1.17,4.28c0,1.65-0.4,3.07-1.19,4.27c-0.79,1.19-1.92,2.11-3.38,2.74
					l4.98,7.13H570.37z M569.07,678.81c-0.8-0.67-1.98-1-3.52-1h-4.19v7.74h4.19c1.54,0,2.72-0.34,3.52-1.01
					c0.8-0.68,1.21-1.63,1.21-2.85C570.27,680.43,569.87,679.47,569.07,678.81z"/>
				<path class="st10" d="M597.76,682.66v4.12l-15.09,5.74v-3.96l10.56-3.84l-10.56-3.87v-3.93L597.76,682.66z"/>
			</g>
			<g>
				<path class="st10" d="M122.84,680.85l-10.56,3.87l10.56,3.84v3.96l-15.09-5.74v-4.12l15.09-5.74V680.85z"/>
				<path class="st10" d="M150.49,686.29c0.72,0.94,1.08,2.1,1.08,3.47c0,1.95-0.76,3.44-2.27,4.49c-1.51,1.05-3.72,1.57-6.61,1.57
					h-11.48v-22.2h10.85c2.71,0,4.78,0.52,6.23,1.55c1.45,1.04,2.17,2.44,2.17,4.22c0,1.08-0.26,2.04-0.78,2.89
					c-0.52,0.85-1.24,1.51-2.17,2C148.78,684.68,149.78,685.35,150.49,686.29z M136.32,677.49v5.23h5.11c1.27,0,2.23-0.22,2.89-0.67
					s0.98-1.1,0.98-1.97c0-0.87-0.33-1.52-0.98-1.95c-0.66-0.43-1.62-0.65-2.89-0.65H136.32z M145.37,691.28
					c0.69-0.44,1.03-1.13,1.03-2.06c0-1.84-1.36-2.76-4.09-2.76h-5.99v5.49h5.99C143.67,691.95,144.69,691.73,145.37,691.28z"/>
				<path class="st10" d="M163.8,694.71c-1.85-0.99-3.3-2.36-4.34-4.11s-1.57-3.7-1.57-5.88c0-2.18,0.52-4.14,1.57-5.88
					c1.05-1.74,2.49-3.11,4.34-4.11c1.85-0.99,3.93-1.49,6.23-1.49s4.38,0.5,6.22,1.49c1.84,0.99,3.29,2.36,4.34,4.11
					c1.06,1.74,1.59,3.71,1.59,5.88c0,2.18-0.53,4.14-1.59,5.88c-1.06,1.74-2.51,3.11-4.34,4.11c-1.84,0.99-3.91,1.49-6.22,1.49
					S165.65,695.7,163.8,694.71z M173.58,690.92c1.06-0.6,1.89-1.44,2.49-2.52c0.6-1.08,0.9-2.3,0.9-3.68c0-1.37-0.3-2.6-0.9-3.68
					c-0.6-1.08-1.43-1.92-2.49-2.52c-1.06-0.6-2.24-0.9-3.55-0.9c-1.31,0-2.49,0.3-3.55,0.9c-1.06,0.6-1.89,1.44-2.49,2.52
					c-0.6,1.08-0.9,2.3-0.9,3.68c0,1.37,0.3,2.6,0.9,3.68c0.6,1.08,1.43,1.92,2.49,2.52c1.06,0.6,2.24,0.9,3.55,0.9
					C171.34,691.82,172.52,691.52,173.58,690.92z"/>
				<path class="st10" d="M189.85,673.62h10.08c2.41,0,4.54,0.46,6.39,1.38c1.85,0.92,3.29,2.21,4.31,3.88
					c1.02,1.67,1.54,3.62,1.54,5.84c0,2.22-0.51,4.16-1.54,5.83c-1.03,1.67-2.46,2.96-4.31,3.88c-1.85,0.92-3.98,1.38-6.39,1.38
					h-10.08V673.62z M199.68,691.6c2.22,0,3.99-0.62,5.31-1.85c1.32-1.24,1.98-2.91,1.98-5.03c0-2.11-0.66-3.79-1.98-5.03
					c-1.32-1.24-3.09-1.86-5.31-1.86h-4.69v13.76H199.68z"/>
				<path class="st10" d="M229.55,687.95v7.86h-5.14v-7.93l-8.59-14.27h5.45l5.93,9.86l5.93-9.86h5.04L229.55,687.95z"/>
				<path class="st10" d="M258.57,682.66v4.12l-15.09,5.74v-3.96l10.56-3.84l-10.56-3.87v-3.93L258.57,682.66z"/>
			</g>
		</g>
	</g>
</g>
</svg>
