<?xml version="1.0" encoding="utf-8"?>
<!-- Generator: Adobe Illustrator 25.4.1, SVG Export Plug-In . SVG Version: 6.00 Build 0)  -->
<svg version="1.1" id="_x2014_ÎÓÈ_x5F_1" xmlns="http://www.w3.org/2000/svg" xmlns:xlink="http://www.w3.org/1999/xlink"
	 x="0px" y="0px" viewBox="0 0 1659.57 1015.56" style="enable-background:new 0 0 1659.57 1015.56;" xml:space="preserve">
<style type="text/css">
	.st0{fill:url(#SVGID_1_);}
	.st1{fill:url(#SVGID_00000052092247662075326510000003233370600056032149_);}
	.st2{fill:url(#SVGID_00000035513360075416713210000002978670318402040197_);}
	.st3{fill:url(#SVGID_00000078749319012690982210000013298927099752882308_);}
	.st4{fill:#564BCF;}
	.st5{fill:url(#SVGID_00000067199341684306776570000000869342922103348620_);}
	.st6{fill:#806AB7;}
	.st7{fill:#FFFFFF;}
	.st8{opacity:0.88;}
	.st9{fill:url(#SVGID_00000085960554558579175080000018145839400070707121_);}
	.st10{fill:url(#SVGID_00000031206057297526108130000016858100863735614639_);}
	.st11{fill:url(#SVGID_00000175316022107101167770000003575930564558070188_);}
	.st12{fill:url(#SVGID_00000079487173617414358440000002027710465190556596_);}
	.st13{fill:url(#SVGID_00000005224353620759147880000012335115241548527257_);}
	.st14{fill:url(#SVGID_00000071549746632194909550000007125695316435004079_);}
	.st15{fill:url(#SVGID_00000021836082414818407780000008276666524370039736_);}
	.st16{opacity:0.49;fill:url(#SVGID_00000181080617218711797180000007856240714072825732_);}
	.st17{fill:url(#SVGID_00000076581509379003272260000015482791840953149322_);}
	.st18{fill:url(#SVGID_00000163777245254386148360000004441277643546167212_);}
	.st19{fill:url(#SVGID_00000155138265936275906540000000492847279107400851_);}
	.st20{fill:url(#SVGID_00000042718079288417278310000012085158859283134141_);}
	.st21{fill:url(#SVGID_00000088838581125077894340000008135892733529055915_);}
	.st22{fill:url(#SVGID_00000016789671565171730130000008373176999413103513_);}
	.st23{fill:url(#SVGID_00000083061593067051034510000002424559370387929510_);}
	.st24{fill:url(#SVGID_00000104684859074380028060000006123491099990196125_);}
	.st25{opacity:0.5;fill:#FFFFFF;}
	.st26{fill:#F0588D;}
	.st27{fill:url(#SVGID_00000026138124011380537420000011901295999853408439_);}
	.st28{opacity:0.49;fill:url(#SVGID_00000168116630941276022030000017982306849943309712_);}
	.st29{fill:url(#SVGID_00000103250352352056226630000006442211927897215888_);}
	.st30{fill:url(#SVGID_00000089533976016480947540000001231994595001783179_);}
	.st31{fill:url(#SVGID_00000054957431000474407980000015948218187823590534_);}
	.st32{fill:url(#SVGID_00000027605306329782819530000008982381076340006834_);}
	.st33{fill:url(#SVGID_00000118389185572952390640000014280883234429287326_);}
	.st34{fill:url(#SVGID_00000069358769594824696130000001348896714257797523_);}
	.st35{opacity:0.83;fill:url(#SVGID_00000093860231286333555870000000244302032917063596_);}
	.st36{fill:url(#SVGID_00000134972334077118715470000008287111620631254716_);}
	.st37{opacity:0.57;}
</style>
<g>
	<linearGradient id="SVGID_1_" gradientUnits="userSpaceOnUse" x1="2323.3943" y1="1581.9192" x2="2323.3943" y2="1581.9192">
		<stop  offset="0" style="stop-color:#060E49"/>
		<stop  offset="1" style="stop-color:#332782"/>
	</linearGradient>
	<path class="st0" d="M2323.39,1581.92"/>
	
		<linearGradient id="SVGID_00000002347776332572711290000012663418128711353733_" gradientUnits="userSpaceOnUse" x1="2323.3943" y1="-418.0808" x2="2323.3943" y2="-418.0808">
		<stop  offset="0" style="stop-color:#060E49"/>
		<stop  offset="1" style="stop-color:#332782"/>
	</linearGradient>
	<path style="fill:url(#SVGID_00000002347776332572711290000012663418128711353733_);" d="M2323.39-418.08"/>
	
		<linearGradient id="SVGID_00000116227373570466289210000002774165082325901482_" gradientUnits="userSpaceOnUse" x1="-2960.1455" y1="1468.9459" x2="-1707.8525" y2="-2389.1326">
		<stop  offset="0" style="stop-color:#060E49"/>
		<stop  offset="1" style="stop-color:#332782"/>
	</linearGradient>
	
		<line style="fill:url(#SVGID_00000116227373570466289210000002774165082325901482_);" x1="-2668.33" y1="1569.92" x2="-2668.33" y2="-430.08"/>
	<g>
		<g>
			
				<linearGradient id="SVGID_00000119105064174432544840000003003832003403837831_" gradientUnits="userSpaceOnUse" x1="181.1117" y1="551.0582" x2="1473.0831" y2="551.0582">
				<stop  offset="0" style="stop-color:#C1C0FF"/>
				<stop  offset="1" style="stop-color:#D7D5FF"/>
			</linearGradient>
			<path style="fill:url(#SVGID_00000119105064174432544840000003003832003403837831_);" d="M1445.76,152.93H208.44
				c-15.09,0-27.33,12.23-27.33,27.33v768.93h1291.97V180.26C1473.08,165.17,1460.85,152.93,1445.76,152.93z"/>
			<rect x="212.13" y="183.95" class="st4" width="1229.93" height="727.72"/>
			
				<linearGradient id="SVGID_00000171710470585629171510000007246100987840851618_" gradientUnits="userSpaceOnUse" x1="827.0974" y1="956.0771" x2="827.0974" y2="1067.37">
				<stop  offset="0" style="stop-color:#D9D5FF"/>
				<stop  offset="1" style="stop-color:#F9F9FF"/>
			</linearGradient>
			<path style="fill:url(#SVGID_00000171710470585629171510000007246100987840851618_);" d="M1472.1,1015.56h-1290
				c-28.28,0-51.21-22.93-51.21-51.21v-21.66H1523.3v21.66C1523.3,992.64,1500.38,1015.56,1472.1,1015.56z"/>
			<polygon class="st6" points="904.4,971.25 749.8,971.25 737.98,942.69 916.22,942.69 			"/>
		</g>
		<g>
			<path class="st7" d="M235.84,867.41c-0.95,0-1.72-0.77-1.72-1.72v-11.49c0-0.95,0.77-1.72,1.72-1.72c0.95,0,1.72,0.77,1.72,1.72
				v11.49C237.56,866.64,236.79,867.41,235.84,867.41z M235.84,838.68c-0.95,0-1.72-0.77-1.72-1.72v-11.49
				c0-0.95,0.77-1.72,1.72-1.72c0.95,0,1.72,0.77,1.72,1.72v11.49C237.56,837.91,236.79,838.68,235.84,838.68z M235.84,809.95
				c-0.95,0-1.72-0.77-1.72-1.72v-11.49c0-0.95,0.77-1.72,1.72-1.72c0.95,0,1.72,0.77,1.72,1.72v11.49
				C237.56,809.18,236.79,809.95,235.84,809.95z M235.84,781.22c-0.95,0-1.72-0.77-1.72-1.72v-11.49c0-0.95,0.77-1.72,1.72-1.72
				c0.95,0,1.72,0.77,1.72,1.72v11.49C237.56,780.45,236.79,781.22,235.84,781.22z M235.84,752.5c-0.95,0-1.72-0.77-1.72-1.72
				v-11.49c0-0.95,0.77-1.72,1.72-1.72c0.95,0,1.72,0.77,1.72,1.72v11.49C237.56,751.73,236.79,752.5,235.84,752.5z M235.84,723.77
				c-0.95,0-1.72-0.77-1.72-1.72v-11.49c0-0.95,0.77-1.72,1.72-1.72c0.95,0,1.72,0.77,1.72,1.72v11.49
				C237.56,723,236.79,723.77,235.84,723.77z M235.84,695.04c-0.95,0-1.72-0.77-1.72-1.72v-11.49c0-0.95,0.77-1.72,1.72-1.72
				c0.95,0,1.72,0.77,1.72,1.72v11.49C237.56,694.27,236.79,695.04,235.84,695.04z M235.84,666.31c-0.95,0-1.72-0.77-1.72-1.72
				V653.1c0-0.95,0.77-1.72,1.72-1.72c0.95,0,1.72,0.77,1.72,1.72v11.49C237.56,665.54,236.79,666.31,235.84,666.31z M235.84,637.59
				c-0.95,0-1.72-0.77-1.72-1.72v-11.49c0-0.95,0.77-1.72,1.72-1.72c0.95,0,1.72,0.77,1.72,1.72v11.49
				C237.56,636.81,236.79,637.59,235.84,637.59z M235.84,608.86c-0.95,0-1.72-0.77-1.72-1.72v-11.49c0-0.95,0.77-1.72,1.72-1.72
				c0.95,0,1.72,0.77,1.72,1.72v11.49C237.56,608.09,236.79,608.86,235.84,608.86z M235.84,580.13c-0.95,0-1.72-0.77-1.72-1.72
				v-11.49c0-0.95,0.77-1.72,1.72-1.72c0.95,0,1.72,0.77,1.72,1.72v11.49C237.56,579.36,236.79,580.13,235.84,580.13z M235.84,551.4
				c-0.95,0-1.72-0.77-1.72-1.72v-11.49c0-0.95,0.77-1.72,1.72-1.72c0.95,0,1.72,0.77,1.72,1.72v11.49
				C237.56,550.63,236.79,551.4,235.84,551.4z M235.84,522.67c-0.95,0-1.72-0.77-1.72-1.72v-11.49c0-0.95,0.77-1.72,1.72-1.72
				c0.95,0,1.72,0.77,1.72,1.72v11.49C237.56,521.9,236.79,522.67,235.84,522.67z M235.84,493.95c-0.95,0-1.72-0.77-1.72-1.72
				v-11.49c0-0.95,0.77-1.72,1.72-1.72c0.95,0,1.72,0.77,1.72,1.72v11.49C237.56,493.18,236.79,493.95,235.84,493.95z
				 M235.84,465.22c-0.95,0-1.72-0.77-1.72-1.72V452c0-0.95,0.77-1.72,1.72-1.72c0.95,0,1.72,0.77,1.72,1.72v11.49
				C237.56,464.45,236.79,465.22,235.84,465.22z M235.84,436.49c-0.95,0-1.72-0.77-1.72-1.72v-11.49c0-0.95,0.77-1.72,1.72-1.72
				c0.95,0,1.72,0.77,1.72,1.72v11.49C237.56,435.72,236.79,436.49,235.84,436.49z M235.84,407.76c-0.95,0-1.72-0.77-1.72-1.72
				v-11.49c0-0.95,0.77-1.72,1.72-1.72c0.95,0,1.72,0.77,1.72,1.72v11.49C237.56,406.99,236.79,407.76,235.84,407.76z
				 M235.84,379.04c-0.95,0-1.72-0.77-1.72-1.72v-11.49c0-0.95,0.77-1.72,1.72-1.72c0.95,0,1.72,0.77,1.72,1.72v11.49
				C237.56,378.26,236.79,379.04,235.84,379.04z M235.84,350.31c-0.95,0-1.72-0.77-1.72-1.72v-11.49c0-0.95,0.77-1.72,1.72-1.72
				c0.95,0,1.72,0.77,1.72,1.72v11.49C237.56,349.54,236.79,350.31,235.84,350.31z M235.84,321.58c-0.95,0-1.72-0.77-1.72-1.72
				v-11.49c0-0.95,0.77-1.72,1.72-1.72c0.95,0,1.72,0.77,1.72,1.72v11.49C237.56,320.81,236.79,321.58,235.84,321.58z
				 M235.84,292.85c-0.95,0-1.72-0.77-1.72-1.72v-11.49c0-0.95,0.77-1.72,1.72-1.72c0.95,0,1.72,0.77,1.72,1.72v11.49
				C237.56,292.08,236.79,292.85,235.84,292.85z M235.84,264.12c-0.95,0-1.72-0.77-1.72-1.72v-11.49c0-0.95,0.77-1.72,1.72-1.72
				c0.95,0,1.72,0.77,1.72,1.72v11.49C237.56,263.35,236.79,264.12,235.84,264.12z M235.84,235.4c-0.95,0-1.72-0.77-1.72-1.72
				v-11.49c0-0.95,0.77-1.72,1.72-1.72c0.95,0,1.72,0.77,1.72,1.72v11.49C237.56,234.63,236.79,235.4,235.84,235.4z M235.84,206.67
				c-0.95,0-1.72-0.77-1.72-1.72v-11.49c0-0.95,0.77-1.72,1.72-1.72c0.95,0,1.72,0.77,1.72,1.72v11.49
				C237.56,205.9,236.79,206.67,235.84,206.67z M235.84,177.94c-0.95,0-1.72-0.77-1.72-1.72v-11.49c0-0.95,0.77-1.72,1.72-1.72
				c0.95,0,1.72,0.77,1.72,1.72v11.49C237.56,177.17,236.79,177.94,235.84,177.94z M235.85,149.21c-0.01,0-0.03,0-0.04,0
				c-0.95-0.02-1.71-0.81-1.69-1.76c0.09-4.03,0.74-7.99,1.96-11.78c0.29-0.91,1.26-1.41,2.17-1.11c0.91,0.29,1.41,1.26,1.12,2.17
				c-1.11,3.47-1.72,7.11-1.79,10.8C237.55,148.47,236.78,149.21,235.85,149.21z M246.42,123.21c-0.43,0-0.86-0.16-1.19-0.48
				c-0.69-0.66-0.71-1.75-0.06-2.44c2.8-2.94,6.01-5.39,9.53-7.27c0.84-0.45,1.88-0.13,2.33,0.71c0.45,0.84,0.13,1.88-0.71,2.33
				c-3.2,1.71-6.11,3.93-8.66,6.61C247.33,123.03,246.88,123.21,246.42,123.21z M1432.69,112.22h-11.49c-0.95,0-1.72-0.77-1.72-1.72
				c0-0.95,0.77-1.72,1.72-1.72h11.49c0.95,0,1.72,0.77,1.72,1.72C1434.41,111.45,1433.64,112.22,1432.69,112.22z M1403.96,112.22
				h-11.49c-0.95,0-1.72-0.77-1.72-1.72c0-0.95,0.77-1.72,1.72-1.72h11.49c0.95,0,1.72,0.77,1.72,1.72
				C1405.68,111.45,1404.91,112.22,1403.96,112.22z M1375.23,112.22h-11.49c-0.95,0-1.72-0.77-1.72-1.72c0-0.95,0.77-1.72,1.72-1.72
				h11.49c0.95,0,1.72,0.77,1.72,1.72C1376.95,111.45,1376.18,112.22,1375.23,112.22z M1346.5,112.22h-11.49
				c-0.95,0-1.72-0.77-1.72-1.72c0-0.95,0.77-1.72,1.72-1.72h11.49c0.95,0,1.72,0.77,1.72,1.72
				C1348.23,111.45,1347.45,112.22,1346.5,112.22z M1317.77,112.22h-11.49c-0.95,0-1.72-0.77-1.72-1.72c0-0.95,0.77-1.72,1.72-1.72
				h11.49c0.95,0,1.72,0.77,1.72,1.72C1319.5,111.45,1318.73,112.22,1317.77,112.22z M1289.05,112.22h-11.49
				c-0.95,0-1.72-0.77-1.72-1.72c0-0.95,0.77-1.72,1.72-1.72h11.49c0.95,0,1.72,0.77,1.72,1.72
				C1290.77,111.45,1290,112.22,1289.05,112.22z M1260.32,112.22h-11.49c-0.95,0-1.72-0.77-1.72-1.72c0-0.95,0.77-1.72,1.72-1.72
				h11.49c0.95,0,1.72,0.77,1.72,1.72C1262.04,111.45,1261.27,112.22,1260.32,112.22z M1231.59,112.22h-11.49
				c-0.95,0-1.72-0.77-1.72-1.72c0-0.95,0.77-1.72,1.72-1.72h11.49c0.95,0,1.72,0.77,1.72,1.72
				C1233.31,111.45,1232.54,112.22,1231.59,112.22z M1202.86,112.22h-11.49c-0.95,0-1.72-0.77-1.72-1.72c0-0.95,0.77-1.72,1.72-1.72
				h11.49c0.95,0,1.72,0.77,1.72,1.72C1204.59,111.45,1203.82,112.22,1202.86,112.22z M1174.13,112.22h-11.49
				c-0.95,0-1.72-0.77-1.72-1.72c0-0.95,0.77-1.72,1.72-1.72h11.49c0.95,0,1.72,0.77,1.72,1.72
				C1175.86,111.45,1175.09,112.22,1174.13,112.22z M1145.41,112.22h-11.49c-0.95,0-1.72-0.77-1.72-1.72c0-0.95,0.77-1.72,1.72-1.72
				h11.49c0.95,0,1.72,0.77,1.72,1.72C1147.13,111.45,1146.36,112.22,1145.41,112.22z M1116.68,112.22h-11.49
				c-0.95,0-1.72-0.77-1.72-1.72c0-0.95,0.77-1.72,1.72-1.72h11.49c0.95,0,1.72,0.77,1.72,1.72
				C1118.4,111.45,1117.63,112.22,1116.68,112.22z M1087.95,112.22h-11.49c-0.95,0-1.72-0.77-1.72-1.72c0-0.95,0.77-1.72,1.72-1.72
				h11.49c0.95,0,1.72,0.77,1.72,1.72C1089.67,111.45,1088.9,112.22,1087.95,112.22z M1059.22,112.22h-11.49
				c-0.95,0-1.72-0.77-1.72-1.72c0-0.95,0.77-1.72,1.72-1.72h11.49c0.95,0,1.72,0.77,1.72,1.72
				C1060.95,111.45,1060.18,112.22,1059.22,112.22z M1030.5,112.22H1019c-0.95,0-1.72-0.77-1.72-1.72c0-0.95,0.77-1.72,1.72-1.72
				h11.49c0.95,0,1.72,0.77,1.72,1.72C1032.22,111.45,1031.45,112.22,1030.5,112.22z M1001.77,112.22h-11.49
				c-0.95,0-1.72-0.77-1.72-1.72c0-0.95,0.77-1.72,1.72-1.72h11.49c0.95,0,1.72,0.77,1.72,1.72
				C1003.49,111.45,1002.72,112.22,1001.77,112.22z M973.04,112.22h-11.49c-0.95,0-1.72-0.77-1.72-1.72c0-0.95,0.77-1.72,1.72-1.72
				h11.49c0.95,0,1.72,0.77,1.72,1.72C974.76,111.45,973.99,112.22,973.04,112.22z M944.31,112.22h-11.49
				c-0.95,0-1.72-0.77-1.72-1.72c0-0.95,0.77-1.72,1.72-1.72h11.49c0.95,0,1.72,0.77,1.72,1.72
				C946.04,111.45,945.26,112.22,944.31,112.22z M915.58,112.22h-11.49c-0.95,0-1.72-0.77-1.72-1.72c0-0.95,0.77-1.72,1.72-1.72
				h11.49c0.95,0,1.72,0.77,1.72,1.72C917.31,111.45,916.54,112.22,915.58,112.22z M886.86,112.22h-11.49
				c-0.95,0-1.72-0.77-1.72-1.72c0-0.95,0.77-1.72,1.72-1.72h11.49c0.95,0,1.72,0.77,1.72,1.72
				C888.58,111.45,887.81,112.22,886.86,112.22z M858.13,112.22h-11.49c-0.95,0-1.72-0.77-1.72-1.72c0-0.95,0.77-1.72,1.72-1.72
				h11.49c0.95,0,1.72,0.77,1.72,1.72C859.85,111.45,859.08,112.22,858.13,112.22z M829.4,112.22h-11.49
				c-0.95,0-1.72-0.77-1.72-1.72c0-0.95,0.77-1.72,1.72-1.72h11.49c0.95,0,1.72,0.77,1.72,1.72
				C831.12,111.45,830.35,112.22,829.4,112.22z M800.67,112.22h-11.49c-0.95,0-1.72-0.77-1.72-1.72c0-0.95,0.77-1.72,1.72-1.72
				h11.49c0.95,0,1.72,0.77,1.72,1.72C802.4,111.45,801.63,112.22,800.67,112.22z M771.95,112.22h-11.49
				c-0.95,0-1.72-0.77-1.72-1.72c0-0.95,0.77-1.72,1.72-1.72h11.49c0.95,0,1.72,0.77,1.72,1.72
				C773.67,111.45,772.9,112.22,771.95,112.22z M743.22,112.22h-11.49c-0.95,0-1.72-0.77-1.72-1.72c0-0.95,0.77-1.72,1.72-1.72
				h11.49c0.95,0,1.72,0.77,1.72,1.72C744.94,111.45,744.17,112.22,743.22,112.22z M714.49,112.22H703c-0.95,0-1.72-0.77-1.72-1.72
				c0-0.95,0.77-1.72,1.72-1.72h11.49c0.95,0,1.72,0.77,1.72,1.72C716.21,111.45,715.44,112.22,714.49,112.22z M685.76,112.22
				h-11.49c-0.95,0-1.72-0.77-1.72-1.72c0-0.95,0.77-1.72,1.72-1.72h11.49c0.95,0,1.72,0.77,1.72,1.72
				C687.49,111.45,686.71,112.22,685.76,112.22z M657.03,112.22h-11.49c-0.95,0-1.72-0.77-1.72-1.72c0-0.95,0.77-1.72,1.72-1.72
				h11.49c0.95,0,1.72,0.77,1.72,1.72C658.76,111.45,657.99,112.22,657.03,112.22z M628.31,112.22h-11.49
				c-0.95,0-1.72-0.77-1.72-1.72c0-0.95,0.77-1.72,1.72-1.72h11.49c0.95,0,1.72,0.77,1.72,1.72
				C630.03,111.45,629.26,112.22,628.31,112.22z M599.58,112.22h-11.49c-0.95,0-1.72-0.77-1.72-1.72c0-0.95,0.77-1.72,1.72-1.72
				h11.49c0.95,0,1.72,0.77,1.72,1.72C601.3,111.45,600.53,112.22,599.58,112.22z M570.85,112.22h-11.49
				c-0.95,0-1.72-0.77-1.72-1.72c0-0.95,0.77-1.72,1.72-1.72h11.49c0.95,0,1.72,0.77,1.72,1.72
				C572.57,111.45,571.8,112.22,570.85,112.22z M542.12,112.22h-11.49c-0.95,0-1.72-0.77-1.72-1.72c0-0.95,0.77-1.72,1.72-1.72
				h11.49c0.95,0,1.72,0.77,1.72,1.72C543.85,111.45,543.08,112.22,542.12,112.22z M513.4,112.22H501.9c-0.95,0-1.72-0.77-1.72-1.72
				c0-0.95,0.77-1.72,1.72-1.72h11.49c0.95,0,1.72,0.77,1.72,1.72C515.12,111.45,514.35,112.22,513.4,112.22z M484.67,112.22h-11.49
				c-0.95,0-1.72-0.77-1.72-1.72c0-0.95,0.77-1.72,1.72-1.72h11.49c0.95,0,1.72,0.77,1.72,1.72
				C486.39,111.45,485.62,112.22,484.67,112.22z M455.94,112.22h-11.49c-0.95,0-1.72-0.77-1.72-1.72c0-0.95,0.77-1.72,1.72-1.72
				h11.49c0.95,0,1.72,0.77,1.72,1.72C457.66,111.45,456.89,112.22,455.94,112.22z M427.21,112.22h-11.49
				c-0.95,0-1.72-0.77-1.72-1.72c0-0.95,0.77-1.72,1.72-1.72h11.49c0.95,0,1.72,0.77,1.72,1.72
				C428.94,111.45,428.16,112.22,427.21,112.22z M398.48,112.22h-11.49c-0.95,0-1.72-0.77-1.72-1.72c0-0.95,0.77-1.72,1.72-1.72
				h11.49c0.95,0,1.72,0.77,1.72,1.72C400.21,111.45,399.44,112.22,398.48,112.22z M369.76,112.22h-11.49
				c-0.95,0-1.72-0.77-1.72-1.72c0-0.95,0.77-1.72,1.72-1.72h11.49c0.95,0,1.72,0.77,1.72,1.72
				C371.48,111.45,370.71,112.22,369.76,112.22z M341.03,112.22h-11.49c-0.95,0-1.72-0.77-1.72-1.72c0-0.95,0.77-1.72,1.72-1.72
				h11.49c0.95,0,1.72,0.77,1.72,1.72C342.75,111.45,341.98,112.22,341.03,112.22z M312.3,112.22h-11.49
				c-0.95,0-1.72-0.77-1.72-1.72c0-0.95,0.77-1.72,1.72-1.72h11.49c0.95,0,1.72,0.77,1.72,1.72
				C314.02,111.45,313.25,112.22,312.3,112.22z M283.57,112.22h-11.49c-0.95,0-1.72-0.77-1.72-1.72c0-0.95,0.77-1.72,1.72-1.72
				h11.49c0.95,0,1.72,0.77,1.72,1.72C285.3,111.45,284.53,112.22,283.57,112.22z"/>
		</g>
		<g class="st8">
			
				<linearGradient id="SVGID_00000006689020003200844480000013442237465273879201_" gradientUnits="userSpaceOnUse" x1="563.4641" y1="427.3312" x2="1090.7307" y2="427.3312">
				<stop  offset="0" style="stop-color:#C1C0FF"/>
				<stop  offset="1" style="stop-color:#D7D5FF"/>
			</linearGradient>
			
				<rect x="563.46" style="fill:url(#SVGID_00000006689020003200844480000013442237465273879201_);" width="527.27" height="854.66"/>
			
				<linearGradient id="SVGID_00000096769132677391713360000017187372219373197736_" gradientUnits="userSpaceOnUse" x1="664.7584" y1="253.7623" x2="989.4364" y2="253.7623">
				<stop  offset="0" style="stop-color:#D9D5FF"/>
				<stop  offset="1" style="stop-color:#F9F9FF"/>
			</linearGradient>
			<circle style="fill:url(#SVGID_00000096769132677391713360000017187372219373197736_);" cx="827.1" cy="253.76" r="162.34"/>
			<g>
				<rect x="695.43" y="461.93" class="st7" width="263.34" height="19.68"/>
				<rect x="734.16" y="495.45" class="st7" width="185.88" height="19.68"/>
				<rect x="649.69" y="551.95" class="st7" width="354.81" height="9.84"/>
				<rect x="649.69" y="574.93" class="st7" width="354.81" height="9.84"/>
				<rect x="649.69" y="597.91" class="st7" width="354.81" height="9.84"/>
				<rect x="687.99" y="620.89" class="st7" width="278.21" height="9.84"/>
			</g>
			
				<linearGradient id="SVGID_00000129914931666981216980000013353870136782680765_" gradientUnits="userSpaceOnUse" x1="649.691" y1="711.4921" x2="1004.5037" y2="711.4921">
				<stop  offset="0" style="stop-color:#FE5294"/>
				<stop  offset="1" style="stop-color:#B94287"/>
			</linearGradient>
			<path style="fill:url(#SVGID_00000129914931666981216980000013353870136782680765_);" d="M977.21,738.78H676.98
				c-15.07,0-27.29-12.22-27.29-27.29v0c0-15.07,12.22-27.29,27.29-27.29h300.23c15.07,0,27.29,12.22,27.29,27.29v0
				C1004.5,726.56,992.28,738.78,977.21,738.78z"/>
			<path class="st7" d="M820.63,792.89c0-3.57,2.89-6.46,6.46-6.46c3.57,0,6.46,2.89,6.46,6.46c0,3.57-2.89,6.46-6.46,6.46
				C823.53,799.35,820.63,796.46,820.63,792.89z"/>
			
				<linearGradient id="SVGID_00000024004026924004993680000002813919634462107040_" gradientUnits="userSpaceOnUse" x1="849.8402" y1="792.8876" x2="862.7678" y2="792.8876">
				<stop  offset="0" style="stop-color:#FE5294"/>
				<stop  offset="1" style="stop-color:#B94287"/>
			</linearGradient>
			<path style="fill:url(#SVGID_00000024004026924004993680000002813919634462107040_);" d="M849.84,792.89
				c0-3.57,2.89-6.46,6.46-6.46c3.57,0,6.46,2.89,6.46,6.46c0,3.57-2.89,6.46-6.46,6.46C852.73,799.35,849.84,796.46,849.84,792.89z
				"/>
			<path class="st7" d="M791.43,792.89c0-3.57,2.89-6.46,6.46-6.46c3.57,0,6.46,2.89,6.46,6.46c0,3.57-2.89,6.46-6.46,6.46
				C794.32,799.35,791.43,796.46,791.43,792.89z"/>
			<g>
				
					<linearGradient id="SVGID_00000134245930755923757600000015320484755445436326_" gradientUnits="userSpaceOnUse" x1="827.0973" y1="190.5612" x2="953.4997" y2="190.5612">
					<stop  offset="0" style="stop-color:#53AAFC"/>
					<stop  offset="1" style="stop-color:#A2CCFF"/>
				</linearGradient>
				<path style="fill:url(#SVGID_00000134245930755923757600000015320484755445436326_);" d="M858.78,253.76h94.72
					c0-69.81-56.59-126.4-126.4-126.4v94.72C844.6,222.08,858.78,236.26,858.78,253.76z"/>
				
					<linearGradient id="SVGID_00000134967661181958623070000004921851457415305609_" gradientUnits="userSpaceOnUse" x1="700.6951" y1="253.7623" x2="881.4138" y2="253.7623">
					<stop  offset="0" style="stop-color:#FE5294"/>
					<stop  offset="1" style="stop-color:#B94287"/>
				</linearGradient>
				<path style="fill:url(#SVGID_00000134967661181958623070000004921851457415305609_);" d="M827.1,285.45
					c-17.5,0-31.69-14.19-31.69-31.69c0-17.5,14.19-31.69,31.69-31.69v-94.72c-69.81,0-126.4,56.59-126.4,126.4
					c0,69.81,56.59,126.4,126.4,126.4c19.45,0,37.86-4.4,54.32-12.25l-40.72-85.57C836.57,284.31,831.97,285.45,827.1,285.45z"/>
				
					<linearGradient id="SVGID_00000034086869780109088680000014857280908983665282_" gradientUnits="userSpaceOnUse" x1="840.6982" y1="310.8406" x2="953.4997" y2="310.8406">
					<stop  offset="0" style="stop-color:#3F4B89"/>
					<stop  offset="1" style="stop-color:#594482"/>
				</linearGradient>
				<path style="fill:url(#SVGID_00000034086869780109088680000014857280908983665282_);" d="M953.5,253.76h-94.72
					c0,12.62-7.4,23.49-18.08,28.59l40.72,85.57C924.04,347.6,953.5,304.13,953.5,253.76z"/>
			</g>
		</g>
		<g>
			
				<linearGradient id="SVGID_00000013902409417689762810000002359401186831872158_" gradientUnits="userSpaceOnUse" x1="454.9866" y1="546.0652" x2="61.0392" y2="794.1453">
				<stop  offset="0" style="stop-color:#3F4B89"/>
				<stop  offset="1" style="stop-color:#594482"/>
			</linearGradient>
			
				<rect y="532.64" style="opacity:0.49;fill:url(#SVGID_00000013902409417689762810000002359401186831872158_);" width="501.36" height="284.16"/>
			<g>
				
					<linearGradient id="SVGID_00000176044170834664700070000001682549080193998228_" gradientUnits="userSpaceOnUse" x1="105.1196" y1="714.7281" x2="55.5646" y2="745.9343">
					<stop  offset="0" style="stop-color:#FE5294"/>
					<stop  offset="1" style="stop-color:#B94287"/>
				</linearGradient>
				
					<rect x="70.83" y="676.61" style="fill:url(#SVGID_00000176044170834664700070000001682549080193998228_);" width="17.19" height="108.6"/>
				
					<linearGradient id="SVGID_00000139255404869685933190000011159418344808032917_" gradientUnits="userSpaceOnUse" x1="164.2423" y1="693.0895" x2="101.9417" y2="732.322">
					<stop  offset="0" style="stop-color:#FE5294"/>
					<stop  offset="1" style="stop-color:#B94287"/>
				</linearGradient>
				
					<rect x="123.34" y="641.66" style="fill:url(#SVGID_00000139255404869685933190000011159418344808032917_);" width="17.19" height="143.55"/>
				
					<linearGradient id="SVGID_00000107571689070858166610000003689567377063474364_" gradientUnits="userSpaceOnUse" x1="230.2469" y1="648.9229" x2="141.9312" y2="704.5379">
					<stop  offset="0" style="stop-color:#FE5294"/>
					<stop  offset="1" style="stop-color:#B94287"/>
				</linearGradient>
				
					<rect x="175.85" y="570.32" style="fill:url(#SVGID_00000107571689070858166610000003689567377063474364_);" width="17.19" height="214.9"/>
				
					<linearGradient id="SVGID_00000077300775626594537110000008779725672178203794_" gradientUnits="userSpaceOnUse" x1="276.059" y1="670.858" x2="200.6635" y2="718.3367">
					<stop  offset="0" style="stop-color:#FE5294"/>
					<stop  offset="1" style="stop-color:#B94287"/>
				</linearGradient>
				
					<rect x="228.36" y="605.75" style="fill:url(#SVGID_00000077300775626594537110000008779725672178203794_);" width="17.19" height="179.46"/>
				
					<linearGradient id="SVGID_00000165218586017094796840000014436882317457008558_" gradientUnits="userSpaceOnUse" x1="345.1582" y1="616.5609" x2="237.7805" y2="684.1797">
					<stop  offset="0" style="stop-color:#FE5294"/>
					<stop  offset="1" style="stop-color:#B94287"/>
				</linearGradient>
				
					<rect x="280.88" y="518.04" style="fill:url(#SVGID_00000165218586017094796840000014436882317457008558_);" width="17.19" height="267.17"/>
				
					<linearGradient id="SVGID_00000136396784795561366300000006742473445992598955_" gradientUnits="userSpaceOnUse" x1="391.6367" y1="636.3144" x2="295.8943" y2="696.6061">
					<stop  offset="0" style="stop-color:#FE5294"/>
					<stop  offset="1" style="stop-color:#B94287"/>
				</linearGradient>
				
					<rect x="333.39" y="549.95" style="fill:url(#SVGID_00000136396784795561366300000006742473445992598955_);" width="17.19" height="235.26"/>
				
					<linearGradient id="SVGID_00000065769045334067609400000015855808386575971495_" gradientUnits="userSpaceOnUse" x1="429.9753" y1="682.7148" x2="361.5638" y2="725.7955">
					<stop  offset="0" style="stop-color:#FE5294"/>
					<stop  offset="1" style="stop-color:#B94287"/>
				</linearGradient>
				
					<rect x="385.9" y="624.9" style="fill:url(#SVGID_00000065769045334067609400000015855808386575971495_);" width="17.19" height="160.31"/>
				
					<linearGradient id="SVGID_00000152261771612352553330000003438014160919722918_" gradientUnits="userSpaceOnUse" x1="473.0658" y1="713.5593" x2="422.8224" y2="745.199">
					<stop  offset="0" style="stop-color:#FE5294"/>
					<stop  offset="1" style="stop-color:#B94287"/>
				</linearGradient>
				
					<rect x="438.42" y="674.72" style="fill:url(#SVGID_00000152261771612352553330000003438014160919722918_);" width="17.19" height="110.49"/>
			</g>
		</g>
		<g>
			<rect x="1246.41" y="251.97" class="st25" width="415.24" height="74.74"/>
			<rect x="1246.41" y="376.01" class="st25" width="415.24" height="74.74"/>
			<rect x="1246.41" y="500.04" class="st25" width="415.24" height="74.74"/>
			<rect x="1146.13" y="251.97" class="st26" width="100.28" height="74.84"/>
			
				<linearGradient id="SVGID_00000046317711754874115120000014699916587069875083_" gradientUnits="userSpaceOnUse" x1="1146.1342" y1="413.3781" x2="1246.4106" y2="413.3781">
				<stop  offset="0" style="stop-color:#53AAFC"/>
				<stop  offset="1" style="stop-color:#A2CCFF"/>
			</linearGradient>
			
				<rect x="1146.13" y="375.96" style="fill:url(#SVGID_00000046317711754874115120000014699916587069875083_);" width="100.28" height="74.84"/>
			
				<linearGradient id="SVGID_00000128449087968709957060000009658849353348400523_" gradientUnits="userSpaceOnUse" x1="1146.1342" y1="537.363" x2="1246.4106" y2="537.363">
				<stop  offset="0" style="stop-color:#3F4B89"/>
				<stop  offset="1" style="stop-color:#594482"/>
			</linearGradient>
			
				<rect x="1146.13" y="499.94" style="opacity:0.49;fill:url(#SVGID_00000128449087968709957060000009658849353348400523_);" width="100.28" height="74.84"/>
			
				<linearGradient id="SVGID_00000091697109128799598570000007934367218133014433_" gradientUnits="userSpaceOnUse" x1="1269.0271" y1="278.2101" x2="1506.5697" y2="278.2101">
				<stop  offset="0" style="stop-color:#D9D5FF"/>
				<stop  offset="1" style="stop-color:#F9F9FF"/>
			</linearGradient>
			
				<rect x="1269.03" y="273.44" style="fill:url(#SVGID_00000091697109128799598570000007934367218133014433_);" width="237.54" height="9.54"/>
			
				<linearGradient id="SVGID_00000116917220508882433490000001373380217529509259_" gradientUnits="userSpaceOnUse" x1="1269.0271" y1="300.473" x2="1387.7983" y2="300.473">
				<stop  offset="0" style="stop-color:#D9D5FF"/>
				<stop  offset="1" style="stop-color:#F9F9FF"/>
			</linearGradient>
			
				<rect x="1269.03" y="295.7" style="fill:url(#SVGID_00000116917220508882433490000001373380217529509259_);" width="118.77" height="9.54"/>
			
				<linearGradient id="SVGID_00000052817733555542068660000005123642742824369854_" gradientUnits="userSpaceOnUse" x1="1270.3835" y1="402.2466" x2="1507.9261" y2="402.2466">
				<stop  offset="0" style="stop-color:#D9D5FF"/>
				<stop  offset="1" style="stop-color:#F9F9FF"/>
			</linearGradient>
			
				<rect x="1270.38" y="397.48" style="fill:url(#SVGID_00000052817733555542068660000005123642742824369854_);" width="237.54" height="9.54"/>
			
				<linearGradient id="SVGID_00000107580713571434546890000013076252495255310470_" gradientUnits="userSpaceOnUse" x1="1270.3835" y1="424.5096" x2="1389.1548" y2="424.5096">
				<stop  offset="0" style="stop-color:#D9D5FF"/>
				<stop  offset="1" style="stop-color:#F9F9FF"/>
			</linearGradient>
			
				<rect x="1270.38" y="419.74" style="fill:url(#SVGID_00000107580713571434546890000013076252495255310470_);" width="118.77" height="9.54"/>
			
				<linearGradient id="SVGID_00000158009576385156764140000008238300248533754809_" gradientUnits="userSpaceOnUse" x1="1270.3835" y1="526.2831" x2="1507.9261" y2="526.2831">
				<stop  offset="0" style="stop-color:#D9D5FF"/>
				<stop  offset="1" style="stop-color:#F9F9FF"/>
			</linearGradient>
			
				<rect x="1270.38" y="521.51" style="fill:url(#SVGID_00000158009576385156764140000008238300248533754809_);" width="237.54" height="9.54"/>
			
				<linearGradient id="SVGID_00000076576061837610357790000008808535936894677154_" gradientUnits="userSpaceOnUse" x1="1270.3835" y1="548.5461" x2="1389.1548" y2="548.5461">
				<stop  offset="0" style="stop-color:#D9D5FF"/>
				<stop  offset="1" style="stop-color:#F9F9FF"/>
			</linearGradient>
			
				<rect x="1270.38" y="543.78" style="fill:url(#SVGID_00000076576061837610357790000008808535936894677154_);" width="118.77" height="9.54"/>
		</g>
		<g>
			
				<linearGradient id="SVGID_00000171718357373476851630000009376866798268876954_" gradientUnits="userSpaceOnUse" x1="1178.869" y1="724.8569" x2="1510.0052" y2="724.8569">
				<stop  offset="0" style="stop-color:#C1C0FF"/>
				<stop  offset="1" style="stop-color:#D7D5FF"/>
			</linearGradient>
			
				<rect x="1178.87" y="650.79" style="opacity:0.83;fill:url(#SVGID_00000171718357373476851630000009376866798268876954_);" width="331.14" height="148.14"/>
			
				<linearGradient id="SVGID_00000108274565044846894690000008793552083568656823_" gradientUnits="userSpaceOnUse" x1="1293.0527" y1="724.8569" x2="1417.271" y2="724.8569">
				<stop  offset="0" style="stop-color:#5D2594"/>
				<stop  offset="1" style="stop-color:#5351E1"/>
			</linearGradient>
			<path style="fill:url(#SVGID_00000108274565044846894690000008793552083568656823_);" d="M1334.64,707.49l23.95,13.83
				c2.73,1.57,2.73,5.51,0,7.08l-23.95,13.83c-2.73,1.57-6.13-0.39-6.13-3.54v-27.66C1328.5,707.88,1331.91,705.91,1334.64,707.49z"
				/>
		</g>
		<g class="st37">
			<g>
				<rect x="302.09" y="233.17" class="st7" width="82.14" height="82.14"/>
				<rect x="410.89" y="233.17" class="st7" width="82.14" height="82.14"/>
			</g>
			<g>
				<rect x="302.09" y="341.18" class="st7" width="190.93" height="7.88"/>
				<rect x="302.09" y="391.62" class="st7" width="190.93" height="7.88"/>
				<rect x="302.09" y="409.42" class="st7" width="38.04" height="7.88"/>
				<rect x="345.47" y="409.42" class="st7" width="147.56" height="7.88"/>
				<rect x="302.09" y="426.95" class="st7" width="55.25" height="7.88"/>
				<rect x="362.85" y="426.95" class="st7" width="55.25" height="7.88"/>
				<rect x="422.74" y="426.95" class="st7" width="7.06" height="7.88"/>
				<rect x="302.09" y="360.26" class="st7" width="69.3" height="7.88"/>
				<rect x="376.45" y="360.26" class="st7" width="69.3" height="7.88"/>
			</g>
		</g>
	</g>
</g>
</svg>
