<?xml version="1.0" encoding="utf-8"?>
<!-- Generator: Adobe Illustrator 25.4.1, SVG Export Plug-In . SVG Version: 6.00 Build 0)  -->
<svg version="1.1" id="_x2014_ÎÓÈ_x5F_1" xmlns="http://www.w3.org/2000/svg" xmlns:xlink="http://www.w3.org/1999/xlink"
	 x="0px" y="0px" viewBox="0 0 956.98 1145.29" style="enable-background:new 0 0 956.98 1145.29;" xml:space="preserve">
<style type="text/css">
	.st0{opacity:0.26;fill:#5C49CC;}
	.st1{opacity:0.6;fill:#F0588D;}
	.st2{fill:#FFFFFF;}
	.st3{fill:url(#SVGID_1_);}
	.st4{fill:url(#SVGID_00000074415275772854655260000006721816026569109181_);}
	.st5{fill:#574BCF;}
	.st6{opacity:0.56;}
	.st7{fill:url(#SVGID_00000180353857122710622060000015687277767173494192_);}
	.st8{fill:url(#SVGID_00000101104949776531455540000001615958546155353264_);}
	.st9{opacity:0.67;}
	.st10{opacity:0.26;}
	.st11{fill:url(#SVGID_00000018202038124663873450000012298479541732368036_);}
	.st12{opacity:0.75;fill:url(#SVGID_00000050657569557642404930000016925736790345458828_);}
	.st13{opacity:0.15;}
	.st14{fill:url(#SVGID_00000163051480568575418560000016376375457997807528_);}
	.st15{opacity:0.75;fill:url(#SVGID_00000048463282657980318840000009510527332259229312_);}
	.st16{opacity:0.1;}
	.st17{fill:url(#SVGID_00000094610593010805316470000015239896648164025529_);}
	.st18{opacity:0.75;fill:url(#SVGID_00000039853582330128048530000012856358473482973354_);}
	.st19{opacity:0.2;}
	.st20{fill:url(#SVGID_00000178907603990356635020000010841906278881629606_);}
	.st21{opacity:0.75;fill:url(#SVGID_00000014608030243386023080000002540071561376127124_);}
	.st22{fill:url(#SVGID_00000142875973133507618320000003365389217176984216_);}
	.st23{opacity:0.75;fill:url(#SVGID_00000124881186743267790790000009569779639797085365_);}
	.st24{opacity:0.13;fill:url(#SVGID_00000093890250853002867680000014212839741167955631_);}
	.st25{opacity:0.95;}
	.st26{fill:url(#SVGID_00000030484191529282122190000015819621293736091542_);}
	.st27{fill:url(#SVGID_00000170250814474501262380000013958823287202280578_);}
	.st28{fill:url(#SVGID_00000045610818628209665920000010081610329799568786_);}
	.st29{fill:url(#SVGID_00000155837182012608094540000006768225854151000727_);}
	.st30{fill:url(#SVGID_00000123432572124726532320000017049964307707101063_);}
	.st31{fill:#A7A5F9;}
	.st32{fill:#F0588D;}
	.st33{opacity:0.5;fill:#FFFFFF;}
	.st34{fill:#5C49CC;}
	.st35{fill:url(#SVGID_00000134211482482996321640000001900636995375912382_);}
	.st36{fill:url(#SVGID_00000038391566756283640330000018401381626807301027_);}
	.st37{fill:url(#SVGID_00000129163675565479091250000002568378639105442992_);}
	.st38{fill:url(#SVGID_00000146491678718318632820000005069723896966899333_);}
	.st39{fill:url(#SVGID_00000104683605135219269590000014422336144208091013_);}
	.st40{fill:url(#SVGID_00000023270543509593113430000008386676588541876882_);}
	.st41{opacity:0.83;fill:url(#SVGID_00000041998660142470937400000000212404121422475659_);}
	.st42{fill:url(#SVGID_00000041991309378531891050000012923308099884001927_);}
	.st43{fill:url(#SVGID_00000040574757502279451690000004987619418477740957_);}
	.st44{fill:url(#SVGID_00000132064225064114919850000011539473533524256649_);}
	.st45{fill:url(#SVGID_00000109724688211628895800000016893981557959304843_);}
</style>
<g>
	<g>
		<g>
			<rect x="95.53" y="639.39" class="st0" width="242.06" height="387.27"/>
			<rect x="119.53" y="613.36" class="st0" width="242.06" height="387.27"/>
		</g>
		<g>
			
				<rect x="580.22" y="3.53" transform="matrix(-1.836970e-16 1 -1 -1.836970e-16 898.4193 -504.0837)" class="st0" width="242.06" height="387.27"/>
			
				<rect x="606.25" y="27.54" transform="matrix(-1.836970e-16 1 -1 -1.836970e-16 948.4526 -506.1116)" class="st0" width="242.06" height="387.27"/>
		</g>
		<path class="st1" d="M930.79,881.92c-7.48-12.08-17.23-22.23-28.45-30.09l3.19-12.91l-31.59-14.14l-7.5,10.98
			c-13.34-3.13-27.4-3.63-41.39-1.16l-7.03-12.17l-32.58,12.44l2.87,13.76c-12.08,7.48-22.23,17.23-30.09,28.45l-12.91-3.19
			l-14.14,31.59l10.98,7.5c-3.13,13.34-3.63,27.4-1.16,41.39l-12.17,7.03l12.44,32.58l13.76-2.87
			c7.48,12.08,17.23,22.23,28.45,30.09l-3.19,12.91l31.59,14.14l7.5-10.98c13.34,3.13,27.4,3.63,41.39,1.16l7.03,12.17l32.58-12.44
			l-2.87-13.76c12.08-7.48,22.23-17.23,30.09-28.45l12.91,3.19l14.14-31.59l-10.98-7.5c3.13-13.34,3.63-27.4,1.16-41.39l12.17-7.03
			l-12.44-32.58L930.79,881.92z M857.98,976.04c-21.82,8.33-46.27-2.61-54.6-24.43c-8.33-21.82,2.61-46.27,24.43-54.6
			c21.82-8.33,46.27,2.61,54.6,24.43C890.74,943.26,879.81,967.71,857.98,976.04z"/>
		<g>
			<path class="st2" d="M173.52,1094.22c-1.54,0-2.79-1.25-2.79-2.79v-11.15c0-1.54,1.25-2.79,2.79-2.79c1.54,0,2.79,1.25,2.79,2.79
				v11.15C176.3,1092.97,175.06,1094.22,173.52,1094.22z M173.52,1060.76c-1.54,0-2.79-1.25-2.79-2.79v-11.15
				c0-1.54,1.25-2.79,2.79-2.79c1.54,0,2.79,1.25,2.79,2.79v11.15C176.3,1059.52,175.06,1060.76,173.52,1060.76z M173.52,1027.31
				c-1.54,0-2.79-1.25-2.79-2.79v-11.15c0-1.54,1.25-2.79,2.79-2.79c1.54,0,2.79,1.25,2.79,2.79v11.15
				C176.3,1026.06,175.06,1027.31,173.52,1027.31z M173.52,993.86c-1.54,0-2.79-1.25-2.79-2.79v-11.15c0-1.54,1.25-2.79,2.79-2.79
				c1.54,0,2.79,1.25,2.79,2.79v11.15C176.3,992.61,175.06,993.86,173.52,993.86z M173.52,960.41c-1.54,0-2.79-1.25-2.79-2.79
				v-11.15c0-1.54,1.25-2.79,2.79-2.79c1.54,0,2.79,1.25,2.79,2.79v11.15C176.3,959.16,175.06,960.41,173.52,960.41z M173.52,926.96
				c-1.54,0-2.79-1.25-2.79-2.79v-11.15c0-1.54,1.25-2.79,2.79-2.79c1.54,0,2.79,1.25,2.79,2.79v11.15
				C176.3,925.71,175.06,926.96,173.52,926.96z M173.52,893.51c-1.54,0-2.79-1.25-2.79-2.79v-11.15c0-1.54,1.25-2.79,2.79-2.79
				c1.54,0,2.79,1.25,2.79,2.79v11.15C176.3,892.26,175.06,893.51,173.52,893.51z M173.52,860.06c-1.54,0-2.79-1.25-2.79-2.79
				v-11.15c0-1.54,1.25-2.79,2.79-2.79c1.54,0,2.79,1.25,2.79,2.79v11.15C176.3,858.81,175.06,860.06,173.52,860.06z M173.52,826.61
				c-1.54,0-2.79-1.25-2.79-2.79v-11.15c0-1.54,1.25-2.79,2.79-2.79c1.54,0,2.79,1.25,2.79,2.79v11.15
				C176.3,825.36,175.06,826.61,173.52,826.61z M173.52,793.16c-1.54,0-2.79-1.25-2.79-2.79v-11.15c0-1.54,1.25-2.79,2.79-2.79
				c1.54,0,2.79,1.25,2.79,2.79v11.15C176.3,791.91,175.06,793.16,173.52,793.16z M173.52,759.71c-1.54,0-2.79-1.25-2.79-2.79
				v-11.15c0-1.54,1.25-2.79,2.79-2.79c1.54,0,2.79,1.25,2.79,2.79v11.15C176.3,758.46,175.06,759.71,173.52,759.71z M173.52,726.26
				c-1.54,0-2.79-1.25-2.79-2.79v-11.15c0-1.54,1.25-2.79,2.79-2.79c1.54,0,2.79,1.25,2.79,2.79v11.15
				C176.3,725.01,175.06,726.26,173.52,726.26z M173.52,692.81c-1.54,0-2.79-1.25-2.79-2.79v-11.15c0-1.54,1.25-2.79,2.79-2.79
				c1.54,0,2.79,1.25,2.79,2.79v11.15C176.3,691.56,175.06,692.81,173.52,692.81z M173.52,659.35c-1.54,0-2.79-1.25-2.79-2.79
				v-11.15c0-1.54,1.25-2.79,2.79-2.79c1.54,0,2.79,1.25,2.79,2.79v11.15C176.3,658.11,175.06,659.35,173.52,659.35z M173.52,625.9
				c-1.54,0-2.79-1.25-2.79-2.79v-11.15c0-1.54,1.25-2.79,2.79-2.79c1.54,0,2.79,1.25,2.79,2.79v11.15
				C176.3,624.66,175.06,625.9,173.52,625.9z M173.52,592.45c-1.54,0-2.79-1.25-2.79-2.79v-11.15c0-1.54,1.25-2.79,2.79-2.79
				c1.54,0,2.79,1.25,2.79,2.79v11.15C176.3,591.2,175.06,592.45,173.52,592.45z M173.52,559c-1.54,0-2.79-1.25-2.79-2.79v-11.15
				c0-1.54,1.25-2.79,2.79-2.79c1.54,0,2.79,1.25,2.79,2.79v11.15C176.3,557.75,175.06,559,173.52,559z M173.52,525.55
				c-1.54,0-2.79-1.25-2.79-2.79v-11.15c0-1.54,1.25-2.79,2.79-2.79c1.54,0,2.79,1.25,2.79,2.79v11.15
				C176.3,524.3,175.06,525.55,173.52,525.55z M173.52,492.1c-1.54,0-2.79-1.25-2.79-2.79v-11.15c0-1.54,1.25-2.79,2.79-2.79
				c1.54,0,2.79,1.25,2.79,2.79v11.15C176.3,490.85,175.06,492.1,173.52,492.1z M173.52,458.65c-1.54,0-2.79-1.25-2.79-2.79v-11.15
				c0-1.54,1.25-2.79,2.79-2.79c1.54,0,2.79,1.25,2.79,2.79v11.15C176.3,457.4,175.06,458.65,173.52,458.65z M173.52,425.2
				c-1.54,0-2.79-1.25-2.79-2.79v-11.15c0-1.54,1.25-2.79,2.79-2.79c1.54,0,2.79,1.25,2.79,2.79v11.15
				C176.3,423.95,175.06,425.2,173.52,425.2z M173.52,391.75c-1.54,0-2.79-1.25-2.79-2.79v-11.15c0-1.54,1.25-2.79,2.79-2.79
				c1.54,0,2.79,1.25,2.79,2.79v11.15C176.3,390.5,175.06,391.75,173.52,391.75z M173.52,358.3c-1.54,0-2.79-1.25-2.79-2.79v-11.15
				c0-1.54,1.25-2.79,2.79-2.79c1.54,0,2.79,1.25,2.79,2.79v11.15C176.3,357.05,175.06,358.3,173.52,358.3z M173.52,324.85
				c-1.54,0-2.79-1.25-2.79-2.79v-11.15c0-1.54,1.25-2.79,2.79-2.79c1.54,0,2.79,1.25,2.79,2.79v11.15
				C176.3,323.6,175.06,324.85,173.52,324.85z M173.52,291.4c-1.54,0-2.79-1.25-2.79-2.79v-11.15c0-1.54,1.25-2.79,2.79-2.79
				c1.54,0,2.79,1.25,2.79,2.79v11.15C176.3,290.15,175.06,291.4,173.52,291.4z M173.52,257.94c-1.54,0-2.79-1.25-2.79-2.79v-11.15
				c0-1.54,1.25-2.79,2.79-2.79c1.54,0,2.79,1.25,2.79,2.79v11.15C176.3,256.7,175.06,257.94,173.52,257.94z M173.52,224.49
				c-1.54,0-2.79-1.25-2.79-2.79v-11.15c0-1.54,1.25-2.79,2.79-2.79c1.54,0,2.79,1.25,2.79,2.79v11.15
				C176.3,223.25,175.06,224.49,173.52,224.49z M173.52,191.04c-1.54,0-2.79-1.25-2.79-2.79V177.1c0-1.54,1.25-2.79,2.79-2.79
				c1.54,0,2.79,1.25,2.79,2.79v11.15C176.3,189.79,175.06,191.04,173.52,191.04z M173.52,157.59c-1.54,0-2.79-1.25-2.79-2.79
				v-11.15c0-1.54,1.25-2.79,2.79-2.79c1.54,0,2.79,1.25,2.79,2.79v11.15C176.3,156.34,175.06,157.59,173.52,157.59z M173.52,124.14
				c-1.54,0-2.79-1.25-2.79-2.79V110.2c0-1.54,1.25-2.79,2.79-2.79c1.54,0,2.79,1.25,2.79,2.79v11.15
				C176.3,122.89,175.06,124.14,173.52,124.14z M173.52,90.69c-1.54,0-2.79-1.25-2.79-2.79V76.75c0-1.54,1.25-2.79,2.79-2.79
				c1.54,0,2.79,1.25,2.79,2.79V87.9C176.3,89.44,175.06,90.69,173.52,90.69z M176.45,57.53c-0.26,0-0.52-0.04-0.79-0.11
				c-1.48-0.43-2.32-1.98-1.89-3.46c1.09-3.69,2.47-7.33,4.12-10.82c0.66-1.39,2.32-1.99,3.71-1.33s1.99,2.32,1.33,3.71
				c-1.52,3.23-2.8,6.59-3.81,10.01C178.77,56.74,177.66,57.53,176.45,57.53z M192.86,28.72c-0.68,0-1.36-0.25-1.9-0.75
				c-1.13-1.05-1.19-2.81-0.15-3.94c2.62-2.82,5.48-5.46,8.49-7.85c1.21-0.95,2.96-0.75,3.92,0.46c0.96,1.21,0.75,2.96-0.46,3.92
				c-2.79,2.21-5.44,4.65-7.87,7.27C194.36,28.42,193.61,28.72,192.86,28.72z M220.37,10.22c-1.13,0-2.19-0.69-2.61-1.8
				c-0.54-1.44,0.18-3.05,1.62-3.59c3.6-1.36,7.34-2.45,11.11-3.23c1.5-0.32,2.98,0.65,3.3,2.16c0.31,1.51-0.65,2.98-2.16,3.3
				c-3.49,0.73-6.95,1.74-10.28,2.99C221.03,10.16,220.7,10.22,220.37,10.22z M755.11,5.58c-1.54,0-2.84-1.25-2.84-2.79
				c0-1.54,1.2-2.79,2.74-2.79h0.1c1.54,0,2.79,1.25,2.79,2.79C757.9,4.33,756.65,5.58,755.11,5.58z M732.71,5.58h-11.15
				c-1.54,0-2.79-1.25-2.79-2.79c0-1.54,1.25-2.79,2.79-2.79h11.15c1.54,0,2.79,1.25,2.79,2.79C735.5,4.33,734.25,5.58,732.71,5.58z
				 M699.26,5.58h-11.15c-1.54,0-2.79-1.25-2.79-2.79c0-1.54,1.25-2.79,2.79-2.79h11.15c1.54,0,2.79,1.25,2.79,2.79
				C702.05,4.33,700.8,5.58,699.26,5.58z M665.81,5.58h-11.15c-1.54,0-2.79-1.25-2.79-2.79c0-1.54,1.25-2.79,2.79-2.79h11.15
				c1.54,0,2.79,1.25,2.79,2.79C668.6,4.33,667.35,5.58,665.81,5.58z M632.36,5.58h-11.15c-1.54,0-2.79-1.25-2.79-2.79
				c0-1.54,1.25-2.79,2.79-2.79h11.15c1.54,0,2.79,1.25,2.79,2.79C635.15,4.33,633.9,5.58,632.36,5.58z M598.91,5.58h-11.15
				c-1.54,0-2.79-1.25-2.79-2.79c0-1.54,1.25-2.79,2.79-2.79h11.15c1.54,0,2.79,1.25,2.79,2.79C601.7,4.33,600.45,5.58,598.91,5.58z
				 M565.46,5.58h-11.15c-1.54,0-2.79-1.25-2.79-2.79c0-1.54,1.25-2.79,2.79-2.79h11.15c1.54,0,2.79,1.25,2.79,2.79
				C568.24,4.33,567,5.58,565.46,5.58z M532.01,5.58h-11.15c-1.54,0-2.79-1.25-2.79-2.79c0-1.54,1.25-2.79,2.79-2.79h11.15
				c1.54,0,2.79,1.25,2.79,2.79C534.79,4.33,533.54,5.58,532.01,5.58z M498.56,5.58H487.4c-1.54,0-2.79-1.25-2.79-2.79
				c0-1.54,1.25-2.79,2.79-2.79h11.15c1.54,0,2.79,1.25,2.79,2.79C501.34,4.33,500.09,5.58,498.56,5.58z M465.1,5.58h-11.15
				c-1.54,0-2.79-1.25-2.79-2.79c0-1.54,1.25-2.79,2.79-2.79h11.15c1.54,0,2.79,1.25,2.79,2.79C467.89,4.33,466.64,5.58,465.1,5.58z
				 M431.65,5.58H420.5c-1.54,0-2.79-1.25-2.79-2.79c0-1.54,1.25-2.79,2.79-2.79h11.15c1.54,0,2.79,1.25,2.79,2.79
				C434.44,4.33,433.19,5.58,431.65,5.58z M398.2,5.58h-11.15c-1.54,0-2.79-1.25-2.79-2.79c0-1.54,1.25-2.79,2.79-2.79h11.15
				c1.54,0,2.79,1.25,2.79,2.79C400.99,4.33,399.74,5.58,398.2,5.58z M364.75,5.58H353.6c-1.54,0-2.79-1.25-2.79-2.79
				c0-1.54,1.25-2.79,2.79-2.79h11.15c1.54,0,2.79,1.25,2.79,2.79C367.54,4.33,366.29,5.58,364.75,5.58z M331.3,5.58h-11.15
				c-1.54,0-2.79-1.25-2.79-2.79c0-1.54,1.25-2.79,2.79-2.79h11.15c1.54,0,2.79,1.25,2.79,2.79C334.09,4.33,332.84,5.58,331.3,5.58z
				 M297.85,5.58H286.7c-1.54,0-2.79-1.25-2.79-2.79c0-1.54,1.25-2.79,2.79-2.79h11.15c1.54,0,2.79,1.25,2.79,2.79
				C300.64,4.33,299.39,5.58,297.85,5.58z M264.4,5.58h-11.15c-1.54,0-2.79-1.25-2.79-2.79c0-1.54,1.25-2.79,2.79-2.79h11.15
				c1.54,0,2.79,1.25,2.79,2.79C267.19,4.33,265.94,5.58,264.4,5.58z"/>
		</g>
		<g>
			<linearGradient id="SVGID_1_" gradientUnits="userSpaceOnUse" x1="205.2653" y1="589.4379" x2="774.8568" y2="589.4379">
				<stop  offset="0" style="stop-color:#D9D5FF"/>
				<stop  offset="1" style="stop-color:#F9F9FF"/>
			</linearGradient>
			<path class="st3" d="M721.23,1145.29H258.9c-29.62,0-53.63-24.01-53.63-53.63V87.21c0-29.62,24.01-53.63,53.63-53.63h462.33
				c29.62,0,53.63,24.01,53.63,53.63v1004.45C774.86,1121.28,750.85,1145.29,721.23,1145.29z"/>
			
				<linearGradient id="SVGID_00000013890369987090178960000012517104840508322966_" gradientUnits="userSpaceOnUse" x1="647.9137" y1="948.8012" x2="201.2508" y2="24.2581">
				<stop  offset="0" style="stop-color:#5D2594"/>
				<stop  offset="1" style="stop-color:#5351E1"/>
			</linearGradient>
			<path style="fill:url(#SVGID_00000013890369987090178960000012517104840508322966_);" d="M216.36,145.47v946.19
				c0,23.5,19.05,42.54,42.54,42.54h462.32c23.5,0,42.54-19.05,42.54-42.54V145.47c0-6.64-5.38-12.02-12.02-12.02H228.38
				C221.74,133.45,216.36,138.83,216.36,145.47z"/>
			<path class="st5" d="M576.05,89.06H407.77c-3.57,0-6.47-2.9-6.47-6.47v0c0-3.57,2.9-6.47,6.47-6.47h168.29
				c3.57,0,6.47,2.9,6.47,6.47v0C582.53,86.17,579.63,89.06,576.05,89.06z"/>
		</g>
		<g class="st6">
			
				<linearGradient id="SVGID_00000139253200302921267590000009434554727711448973_" gradientUnits="userSpaceOnUse" x1="251.2624" y1="915.4562" x2="513.5724" y2="735.6255">
				<stop  offset="0" style="stop-color:#C1C0FF"/>
				<stop  offset="1" style="stop-color:#D7D5FF"/>
			</linearGradient>
			<path style="fill:url(#SVGID_00000139253200302921267590000009434554727711448973_);" d="M388.24,919.1H281.33
				c-4.12,0-7.45-3.34-7.45-7.45V804.74c0-4.12,3.34-7.45,7.45-7.45h106.91c4.12,0,7.45,3.34,7.45,7.45v106.91
				C395.69,915.77,392.36,919.1,388.24,919.1z"/>
			
				<linearGradient id="SVGID_00000078733251152187306050000006488650310358076591_" gradientUnits="userSpaceOnUse" x1="256.8635" y1="909.8552" x2="519.1734" y2="730.0245">
				<stop  offset="0" style="stop-color:#C1C0FF"/>
				<stop  offset="1" style="stop-color:#D7D5FF"/>
			</linearGradient>
			<path style="fill:url(#SVGID_00000078733251152187306050000006488650310358076591_);" d="M393.84,913.5H286.93
				c-4.12,0-7.45-3.34-7.45-7.45V799.14c0-4.12,3.34-7.45,7.45-7.45h106.91c4.12,0,7.45,3.34,7.45,7.45v106.91
				C401.29,910.17,397.96,913.5,393.84,913.5z"/>
		</g>
		<g class="st9">
			<path class="st2" d="M320.81,850.34l-14.99,5.49l14.99,5.45v5.63l-21.43-8.15v-5.85l21.43-8.15V850.34z"/>
			<path class="st2" d="M342.33,833.68h6.26l-14.86,42.4h-6.26L342.33,833.68z"/>
			<path class="st2" d="M376.23,852.9v5.85l-21.43,8.15v-5.63l14.99-5.45l-14.99-5.49v-5.58L376.23,852.9z"/>
		</g>
		<g class="st10">
			
				<linearGradient id="SVGID_00000047780602687484090240000004279392578872417175_" gradientUnits="userSpaceOnUse" x1="248.4618" y1="752.1014" x2="510.7718" y2="572.2707">
				<stop  offset="0" style="stop-color:#008DC9"/>
				<stop  offset="0.1648" style="stop-color:#0694CB"/>
				<stop  offset="0.4016" style="stop-color:#17A7D1"/>
				<stop  offset="0.6821" style="stop-color:#32C6DB"/>
				<stop  offset="0.9938" style="stop-color:#57F1E9"/>
				<stop  offset="1" style="stop-color:#58F2E9"/>
			</linearGradient>
			<path style="fill:url(#SVGID_00000047780602687484090240000004279392578872417175_);" d="M385.44,755.75H278.53
				c-4.12,0-7.45-3.34-7.45-7.45V641.38c0-4.12,3.34-7.45,7.45-7.45h106.91c4.12,0,7.45,3.34,7.45,7.45V748.3
				C392.89,752.41,389.56,755.75,385.44,755.75z"/>
			
				<linearGradient id="SVGID_00000094610997929196109360000014055123516326147251_" gradientUnits="userSpaceOnUse" x1="254.0629" y1="746.5004" x2="516.3729" y2="566.6696">
				<stop  offset="0" style="stop-color:#008DC9"/>
				<stop  offset="0.1648" style="stop-color:#0694CB"/>
				<stop  offset="0.4016" style="stop-color:#17A7D1"/>
				<stop  offset="0.6821" style="stop-color:#32C6DB"/>
				<stop  offset="0.9938" style="stop-color:#57F1E9"/>
				<stop  offset="1" style="stop-color:#58F2E9"/>
			</linearGradient>
			<path style="opacity:0.75;fill:url(#SVGID_00000094610997929196109360000014055123516326147251_);" d="M391.04,750.15H284.13
				c-4.12,0-7.45-3.34-7.45-7.45V635.78c0-4.12,3.34-7.45,7.45-7.45h106.91c4.12,0,7.45,3.34,7.45,7.45V742.7
				C398.49,746.81,395.16,750.15,391.04,750.15z"/>
		</g>
		<g class="st13">
			
				<linearGradient id="SVGID_00000084490897868893360370000000303746698795072412_" gradientUnits="userSpaceOnUse" x1="403.7383" y1="915.4563" x2="666.0482" y2="735.6256">
				<stop  offset="0" style="stop-color:#008DC9"/>
				<stop  offset="0.1648" style="stop-color:#0694CB"/>
				<stop  offset="0.4016" style="stop-color:#17A7D1"/>
				<stop  offset="0.6821" style="stop-color:#32C6DB"/>
				<stop  offset="0.9938" style="stop-color:#57F1E9"/>
				<stop  offset="1" style="stop-color:#58F2E9"/>
			</linearGradient>
			<path style="fill:url(#SVGID_00000084490897868893360370000000303746698795072412_);" d="M540.72,919.1H433.8
				c-4.12,0-7.45-3.34-7.45-7.45V804.74c0-4.12,3.34-7.45,7.45-7.45h106.91c4.12,0,7.45,3.34,7.45,7.45v106.91
				C548.17,915.77,544.83,919.1,540.72,919.1z"/>
			
				<linearGradient id="SVGID_00000152256040386904761180000003818947445967858335_" gradientUnits="userSpaceOnUse" x1="409.3393" y1="909.8552" x2="671.6493" y2="730.0245">
				<stop  offset="0" style="stop-color:#008DC9"/>
				<stop  offset="0.1648" style="stop-color:#0694CB"/>
				<stop  offset="0.4016" style="stop-color:#17A7D1"/>
				<stop  offset="0.6821" style="stop-color:#32C6DB"/>
				<stop  offset="0.9938" style="stop-color:#57F1E9"/>
				<stop  offset="1" style="stop-color:#58F2E9"/>
			</linearGradient>
			<path style="opacity:0.75;fill:url(#SVGID_00000152256040386904761180000003818947445967858335_);" d="M546.32,913.5H439.4
				c-4.12,0-7.45-3.34-7.45-7.45V799.14c0-4.12,3.34-7.45,7.45-7.45h106.91c4.12,0,7.45,3.34,7.45,7.45v106.91
				C553.77,910.17,550.43,913.5,546.32,913.5z"/>
		</g>
		<g class="st16">
			
				<linearGradient id="SVGID_00000116940549108216530010000011741055470270257565_" gradientUnits="userSpaceOnUse" x1="569.8367" y1="918.2568" x2="832.1467" y2="738.4261">
				<stop  offset="0" style="stop-color:#008DC9"/>
				<stop  offset="0.1648" style="stop-color:#0694CB"/>
				<stop  offset="0.4016" style="stop-color:#17A7D1"/>
				<stop  offset="0.6821" style="stop-color:#32C6DB"/>
				<stop  offset="0.9938" style="stop-color:#57F1E9"/>
				<stop  offset="1" style="stop-color:#58F2E9"/>
			</linearGradient>
			<path style="fill:url(#SVGID_00000116940549108216530010000011741055470270257565_);" d="M706.82,921.9H599.9
				c-4.12,0-7.45-3.34-7.45-7.45V807.54c0-4.12,3.34-7.45,7.45-7.45h106.91c4.12,0,7.45,3.34,7.45,7.45v106.91
				C714.27,918.57,710.93,921.9,706.82,921.9z"/>
			
				<linearGradient id="SVGID_00000005235610823964479920000000031504779851153581_" gradientUnits="userSpaceOnUse" x1="575.4378" y1="912.6558" x2="837.7478" y2="732.825">
				<stop  offset="0" style="stop-color:#008DC9"/>
				<stop  offset="0.1648" style="stop-color:#0694CB"/>
				<stop  offset="0.4016" style="stop-color:#17A7D1"/>
				<stop  offset="0.6821" style="stop-color:#32C6DB"/>
				<stop  offset="0.9938" style="stop-color:#57F1E9"/>
				<stop  offset="1" style="stop-color:#58F2E9"/>
			</linearGradient>
			<path style="opacity:0.75;fill:url(#SVGID_00000005235610823964479920000000031504779851153581_);" d="M712.42,916.3H605.5
				c-4.12,0-7.45-3.34-7.45-7.45V801.94c0-4.12,3.34-7.45,7.45-7.45h106.91c4.12,0,7.45,3.34,7.45,7.45v106.91
				C719.87,912.97,716.53,916.3,712.42,916.3z"/>
		</g>
		<g class="st19">
			
				<linearGradient id="SVGID_00000046327490051255511440000012060452175983847828_" gradientUnits="userSpaceOnUse" x1="558.1398" y1="307.4603" x2="820.4496" y2="127.6296">
				<stop  offset="0" style="stop-color:#008DC9"/>
				<stop  offset="0.1648" style="stop-color:#0694CB"/>
				<stop  offset="0.4016" style="stop-color:#17A7D1"/>
				<stop  offset="0.6821" style="stop-color:#32C6DB"/>
				<stop  offset="0.9938" style="stop-color:#57F1E9"/>
				<stop  offset="1" style="stop-color:#58F2E9"/>
			</linearGradient>
			<path style="fill:url(#SVGID_00000046327490051255511440000012060452175983847828_);" d="M695.12,311.11H588.21
				c-4.12,0-7.45-3.34-7.45-7.45V196.74c0-4.12,3.34-7.45,7.45-7.45h106.91c4.12,0,7.45,3.34,7.45,7.45v106.91
				C702.57,307.77,699.23,311.11,695.12,311.11z"/>
			
				<linearGradient id="SVGID_00000072274658316434951910000006103205730732741263_" gradientUnits="userSpaceOnUse" x1="563.7408" y1="301.8593" x2="826.0508" y2="122.0286">
				<stop  offset="0" style="stop-color:#008DC9"/>
				<stop  offset="0.1648" style="stop-color:#0694CB"/>
				<stop  offset="0.4016" style="stop-color:#17A7D1"/>
				<stop  offset="0.6821" style="stop-color:#32C6DB"/>
				<stop  offset="0.9938" style="stop-color:#57F1E9"/>
				<stop  offset="1" style="stop-color:#58F2E9"/>
			</linearGradient>
			<path style="opacity:0.75;fill:url(#SVGID_00000072274658316434951910000006103205730732741263_);" d="M700.72,305.51H593.81
				c-4.12,0-7.45-3.34-7.45-7.45V191.14c0-4.12,3.34-7.45,7.45-7.45h106.91c4.12,0,7.45,3.34,7.45,7.45v106.91
				C708.17,302.17,704.83,305.51,700.72,305.51z"/>
		</g>
		<g class="st19">
			
				<linearGradient id="SVGID_00000097459120289225157840000000154606044470037399_" gradientUnits="userSpaceOnUse" x1="403.7383" y1="310.2609" x2="666.0482" y2="130.4302">
				<stop  offset="0" style="stop-color:#008DC9"/>
				<stop  offset="0.1648" style="stop-color:#0694CB"/>
				<stop  offset="0.4016" style="stop-color:#17A7D1"/>
				<stop  offset="0.6821" style="stop-color:#32C6DB"/>
				<stop  offset="0.9938" style="stop-color:#57F1E9"/>
				<stop  offset="1" style="stop-color:#58F2E9"/>
			</linearGradient>
			<path style="fill:url(#SVGID_00000097459120289225157840000000154606044470037399_);" d="M540.72,313.91H433.8
				c-4.12,0-7.45-3.34-7.45-7.45V199.54c0-4.12,3.34-7.45,7.45-7.45h106.91c4.12,0,7.45,3.34,7.45,7.45v106.91
				C548.17,310.57,544.83,313.91,540.72,313.91z"/>
			
				<linearGradient id="SVGID_00000102516113595359448660000008658658847749376161_" gradientUnits="userSpaceOnUse" x1="409.3393" y1="304.6599" x2="671.6493" y2="124.8291">
				<stop  offset="0" style="stop-color:#008DC9"/>
				<stop  offset="0.1648" style="stop-color:#0694CB"/>
				<stop  offset="0.4016" style="stop-color:#17A7D1"/>
				<stop  offset="0.6821" style="stop-color:#32C6DB"/>
				<stop  offset="0.9938" style="stop-color:#57F1E9"/>
				<stop  offset="1" style="stop-color:#58F2E9"/>
			</linearGradient>
			<path style="opacity:0.75;fill:url(#SVGID_00000102516113595359448660000008658658847749376161_);" d="M546.32,308.31H439.4
				c-4.12,0-7.45-3.34-7.45-7.45V193.94c0-4.12,3.34-7.45,7.45-7.45h106.91c4.12,0,7.45,3.34,7.45,7.45v106.91
				C553.77,304.97,550.43,308.31,546.32,308.31z"/>
		</g>
		
			<linearGradient id="SVGID_00000093165964436278723740000013670565536831415219_" gradientUnits="userSpaceOnUse" x1="490.0608" y1="1063.0083" x2="490.0608" y2="953.3488">
			<stop  offset="0" style="stop-color:#D9D5FF"/>
			<stop  offset="1" style="stop-color:#F9F9FF"/>
		</linearGradient>
		
			<circle style="opacity:0.13;fill:url(#SVGID_00000093165964436278723740000013670565536831415219_);" cx="490.06" cy="1008.18" r="54.83"/>
		<g class="st25">
			
				<linearGradient id="SVGID_00000005251588867171762360000009577031848229114551_" gradientUnits="userSpaceOnUse" x1="0" y1="375.812" x2="401.2935" y2="375.812">
				<stop  offset="0" style="stop-color:#C1C0FF"/>
				<stop  offset="1" style="stop-color:#D7D5FF"/>
			</linearGradient>
			
				<rect y="186.49" style="fill:url(#SVGID_00000005251588867171762360000009577031848229114551_);" width="401.29" height="378.64"/>
			
				<linearGradient id="SVGID_00000078023802853869219970000005757033923906904728_" gradientUnits="userSpaceOnUse" x1="31.3415" y1="256.8984" x2="366.2344" y2="256.8984">
				<stop  offset="0" style="stop-color:#D9D5FF"/>
				<stop  offset="1" style="stop-color:#F9F9FF"/>
			</linearGradient>
			
				<rect x="31.34" y="239.12" style="fill:url(#SVGID_00000078023802853869219970000005757033923906904728_);" width="334.89" height="35.56"/>
			
				<linearGradient id="SVGID_00000005946057094632659210000005187614376629406865_" gradientUnits="userSpaceOnUse" x1="119.9478" y1="452.6688" x2="169.7535" y2="452.6688">
				<stop  offset="0" style="stop-color:#D9D5FF"/>
				<stop  offset="1" style="stop-color:#F9F9FF"/>
			</linearGradient>
			
				<rect x="119.95" y="447.4" style="fill:url(#SVGID_00000005946057094632659210000005187614376629406865_);" width="49.81" height="10.53"/>
			
				<linearGradient id="SVGID_00000080204125838565065300000018046966583798775952_" gradientUnits="userSpaceOnUse" x1="179.8182" y1="452.6688" x2="273.3131" y2="452.6688">
				<stop  offset="0" style="stop-color:#D9D5FF"/>
				<stop  offset="1" style="stop-color:#F9F9FF"/>
			</linearGradient>
			
				<rect x="179.82" y="447.4" style="fill:url(#SVGID_00000080204125838565065300000018046966583798775952_);" width="93.49" height="10.53"/>
			
				<linearGradient id="SVGID_00000065071392668063909280000005849754408524186250_" gradientUnits="userSpaceOnUse" x1="31.3415" y1="328.2552" x2="366.2344" y2="328.2552">
				<stop  offset="0" style="stop-color:#D9D5FF"/>
				<stop  offset="1" style="stop-color:#F9F9FF"/>
			</linearGradient>
			
				<rect x="31.34" y="308.08" style="fill:url(#SVGID_00000065071392668063909280000005849754408524186250_);" width="334.89" height="40.34"/>
			<path class="st31" d="M355.52,414.89H42.06c-5.92,0-10.72-4.8-10.72-10.72v-18.91c0-5.92,4.8-10.72,10.72-10.72h313.46
				c5.92,0,10.72,4.8,10.72,10.72v18.91C366.23,410.09,361.44,414.89,355.52,414.89z"/>
			<path class="st32" d="M355.52,517.37H42.06c-5.92,0-10.72-4.8-10.72-10.72v-18.91c0-5.92,4.8-10.72,10.72-10.72h313.46
				c5.92,0,10.72,4.8,10.72,10.72v18.91C366.23,512.57,361.44,517.37,355.52,517.37z"/>
		</g>
		<g>
			<rect x="534.04" y="515.78" class="st33" width="321.21" height="57.81"/>
			<rect x="534.04" y="611.73" class="st33" width="321.21" height="57.81"/>
			<rect x="534.04" y="707.67" class="st33" width="321.21" height="57.81"/>
			<rect x="456.48" y="515.78" class="st32" width="77.57" height="57.89"/>
			<rect x="456.48" y="611.69" class="st34" width="77.57" height="57.89"/>
			<rect x="456.48" y="707.59" class="st31" width="77.57" height="57.89"/>
			
				<linearGradient id="SVGID_00000073714840494445764940000004080495835733137845_" gradientUnits="userSpaceOnUse" x1="551.5384" y1="536.0751" x2="735.2881" y2="536.0751">
				<stop  offset="0" style="stop-color:#D9D5FF"/>
				<stop  offset="1" style="stop-color:#F9F9FF"/>
			</linearGradient>
			
				<rect x="551.54" y="532.38" style="fill:url(#SVGID_00000073714840494445764940000004080495835733137845_);" width="183.75" height="7.38"/>
			
				<linearGradient id="SVGID_00000018220317834888950450000012503618491836417189_" gradientUnits="userSpaceOnUse" x1="551.5384" y1="553.2965" x2="643.4133" y2="553.2965">
				<stop  offset="0" style="stop-color:#D9D5FF"/>
				<stop  offset="1" style="stop-color:#F9F9FF"/>
			</linearGradient>
			
				<rect x="551.54" y="549.61" style="fill:url(#SVGID_00000018220317834888950450000012503618491836417189_);" width="91.87" height="7.38"/>
			
				<linearGradient id="SVGID_00000159434962651494525360000015833372658287654296_" gradientUnits="userSpaceOnUse" x1="552.5877" y1="632.0228" x2="736.3374" y2="632.0228">
				<stop  offset="0" style="stop-color:#D9D5FF"/>
				<stop  offset="1" style="stop-color:#F9F9FF"/>
			</linearGradient>
			
				<rect x="552.59" y="628.33" style="fill:url(#SVGID_00000159434962651494525360000015833372658287654296_);" width="183.75" height="7.38"/>
			
				<linearGradient id="SVGID_00000131355994630616320250000016629503432398820021_" gradientUnits="userSpaceOnUse" x1="552.5877" y1="649.2442" x2="644.4625" y2="649.2442">
				<stop  offset="0" style="stop-color:#D9D5FF"/>
				<stop  offset="1" style="stop-color:#F9F9FF"/>
			</linearGradient>
			
				<rect x="552.59" y="645.55" style="fill:url(#SVGID_00000131355994630616320250000016629503432398820021_);" width="91.87" height="7.38"/>
			
				<linearGradient id="SVGID_00000065064372530055748460000000223467957099808914_" gradientUnits="userSpaceOnUse" x1="552.5877" y1="727.9706" x2="736.3374" y2="727.9706">
				<stop  offset="0" style="stop-color:#D9D5FF"/>
				<stop  offset="1" style="stop-color:#F9F9FF"/>
			</linearGradient>
			
				<rect x="552.59" y="724.28" style="fill:url(#SVGID_00000065064372530055748460000000223467957099808914_);" width="183.75" height="7.38"/>
			
				<linearGradient id="SVGID_00000008869105641905816900000007514451544731422890_" gradientUnits="userSpaceOnUse" x1="552.5877" y1="745.1919" x2="644.4625" y2="745.1919">
				<stop  offset="0" style="stop-color:#D9D5FF"/>
				<stop  offset="1" style="stop-color:#F9F9FF"/>
			</linearGradient>
			
				<rect x="552.59" y="741.5" style="fill:url(#SVGID_00000008869105641905816900000007514451544731422890_);" width="91.87" height="7.38"/>
		</g>
		
			<linearGradient id="SVGID_00000118386067868833027780000009085986208376360069_" gradientUnits="userSpaceOnUse" x1="448.7495" y1="341.8929" x2="855.2518" y2="341.8929">
			<stop  offset="0" style="stop-color:#C1C0FF"/>
			<stop  offset="1" style="stop-color:#D7D5FF"/>
		</linearGradient>
		
			<rect x="448.75" y="250.96" style="opacity:0.83;fill:url(#SVGID_00000118386067868833027780000009085986208376360069_);" width="406.5" height="181.86"/>
		
			<linearGradient id="SVGID_00000151531168441287547590000011568388837944347816_" gradientUnits="userSpaceOnUse" x1="588.9214" y1="341.8929" x2="741.4114" y2="341.8929">
			<stop  offset="0" style="stop-color:#5D2594"/>
			<stop  offset="1" style="stop-color:#5351E1"/>
		</linearGradient>
		<path style="fill:url(#SVGID_00000151531168441287547590000011568388837944347816_);" d="M639.97,320.57l29.41,16.98
			c3.35,1.93,3.35,6.76,0,8.7l-29.41,16.98c-3.35,1.93-7.53-0.48-7.53-4.35v-33.95C632.44,321.05,636.62,318.64,639.97,320.57z"/>
		
			<linearGradient id="SVGID_00000001622791982889172700000009348965050829161136_" gradientUnits="userSpaceOnUse" x1="478.0563" y1="544.7257" x2="512.4627" y2="544.7257">
			<stop  offset="0" style="stop-color:#C1C0FF"/>
			<stop  offset="1" style="stop-color:#D7D5FF"/>
		</linearGradient>
		<circle style="fill:url(#SVGID_00000001622791982889172700000009348965050829161136_);" cx="495.26" cy="544.73" r="17.2"/>
		
			<linearGradient id="SVGID_00000103224767226115460580000011859838435528972975_" gradientUnits="userSpaceOnUse" x1="478.0563" y1="639.3921" x2="512.4627" y2="639.3921">
			<stop  offset="0" style="stop-color:#C1C0FF"/>
			<stop  offset="1" style="stop-color:#D7D5FF"/>
		</linearGradient>
		<circle style="fill:url(#SVGID_00000103224767226115460580000011859838435528972975_);" cx="495.26" cy="639.39" r="17.2"/>
		
			<linearGradient id="SVGID_00000173873075982958184530000001379336809712053142_" gradientUnits="userSpaceOnUse" x1="478.0563" y1="736.5812" x2="512.4627" y2="736.5812">
			<stop  offset="0" style="stop-color:#C1C0FF"/>
			<stop  offset="1" style="stop-color:#D7D5FF"/>
		</linearGradient>
		<circle style="fill:url(#SVGID_00000173873075982958184530000001379336809712053142_);" cx="495.26" cy="736.58" r="17.2"/>
	</g>
</g>
</svg>
